<svg width="198" height="61" viewBox="0 0 198 61" fill="none" xmlns="http://www.w3.org/2000/svg">
<g filter="url(#filter0_d_8625_1556)">
<g clip-path="url(#clip0_8625_1556)">
<rect width="60" height="60" rx="30" fill="white"/>
<path d="M47.6476 59.6328L30.1182 59.6328L30.1182 81.2671H47.6476V59.6328Z" fill="white"/>
<path d="M7.62496 92.001H7.62381C7.53803 92.0035 7.45275 91.9869 7.37413 91.9525C7.29552 91.918 7.22552 91.8664 7.1692 91.8015C7.1027 91.7179 7.05467 91.621 7.02828 91.5174C7.00189 91.4138 6.99774 91.3057 7.0161 91.2004C7.0938 90.6844 7.1692 90.1597 7.24199 89.6523V89.6514V89.6495C7.28218 89.3697 7.32375 89.0803 7.36524 88.7957C5.78306 89.2265 4.15207 89.4512 2.51258 89.4642C1.82068 89.4651 1.12954 89.4181 0.444106 89.3235C-0.244552 89.2277 -0.924719 89.0783 -1.59022 88.8766C-1.62207 88.8441 -1.63401 88.8174 -1.62559 88.7975C-1.61104 88.7627 -1.53787 88.7466 -1.39518 88.7466C-1.3416 88.7466 -1.2861 88.7487 -1.22892 88.7511L-1.21568 88.7516C-1.16661 88.7536 -1.1203 88.7555 -1.08271 88.7555C-1.05722 88.7567 -1.03169 88.7546 -1.0067 88.7495C-1.55866 88.3751 -2.00847 87.8684 -2.31521 87.2754C-2.463 86.9891 -2.58218 86.6889 -2.671 86.3791C-2.76177 86.0615 -2.82861 85.7375 -2.87094 85.4099C-2.95297 84.7271 -2.97346 84.0383 -2.93218 83.3518C-2.89881 82.6557 -2.82654 81.9664 -2.75673 81.2998V81.2987C-2.71846 80.9304 -2.68172 80.5823 -2.65293 80.245C-2.40798 78.6619 -2.18485 77.0176 -1.96906 75.4272V75.4259C-1.41792 71.365 -0.848018 67.166 0.175194 63.1685C0.439513 62.1359 0.728863 61.1394 1.03528 60.2066C1.36367 59.2068 1.7249 58.2398 2.10879 57.3323C2.51548 56.3711 2.96252 55.4415 3.4375 54.5693C3.9303 53.6635 4.47331 52.7861 5.06398 51.9411C5.68535 51.1034 6.37471 50.3186 7.12503 49.5946C7.8763 48.869 8.69159 48.2131 9.56093 47.6348C10.4266 47.0589 11.3492 46.5741 12.3143 46.1881C13.2836 45.8014 14.295 45.5305 15.3276 45.3811L15.4432 45.3653C15.6428 45.3386 15.8505 45.3144 16.0515 45.291C17.1045 45.1682 18.1932 45.0412 19.0836 44.486C19.5467 44.1156 19.9027 43.629 20.2477 43.1588C20.5193 42.7881 20.7758 42.4377 21.0626 42.1768C21.1981 42.0494 21.3524 41.9435 21.5199 41.8628C21.6864 41.7842 21.8678 41.7426 22.0518 41.7406H22.0583C22.226 41.7524 22.3882 41.8057 22.5303 41.8958C22.702 41.99 22.8857 42.1171 23.0802 42.2516C23.262 42.3773 23.4499 42.5073 23.643 42.6208C23.6693 42.1661 23.8191 41.7595 23.9635 41.3662C24.0703 41.1051 24.1514 40.834 24.2057 40.557L24.2134 40.5048C24.232 40.369 24.2423 40.2344 24.2523 40.1044C24.2949 39.5477 24.3352 39.0221 25.0049 38.4715C25.3309 38.2305 25.6835 38.0281 26.0559 37.8683C26.4877 37.6796 26.9334 37.5244 27.3889 37.4042C27.8802 37.2728 28.3793 37.1732 28.8833 37.1059C29.392 37.0367 29.9047 37.0014 30.4181 37.0003C31.0241 36.9948 31.6288 37.0563 32.2213 37.1836C32.798 37.314 33.2804 37.5112 33.6553 37.7693C33.9987 38.0086 34.31 38.2912 34.5815 38.61C34.8359 38.9108 35.0583 39.2373 35.245 39.5843C35.6197 40.2699 35.8739 41.0045 36.1432 41.7822C36.3384 42.3461 36.5401 42.9291 36.7924 43.493C36.9994 43.3996 37.2244 43.3533 37.4514 43.3575C37.8686 43.3643 38.2773 43.4771 38.6392 43.6853C38.8096 43.781 38.9647 43.9018 39.0994 44.0437C39.221 44.1692 39.3129 44.3204 39.3683 44.4863C39.552 44.7104 39.6336 45.1721 39.7127 45.6187V45.6192C39.7701 45.9441 39.8243 46.2511 39.9147 46.466C40.4973 46.5589 41.0624 46.6769 41.5944 46.8163C42.1038 46.9491 42.6056 47.1097 43.0976 47.2972C43.5551 47.472 44.0018 47.6738 44.4355 47.9015C44.8447 48.1169 45.2401 48.3575 45.6195 48.6221C45.9834 48.8766 46.3311 49.1537 46.6605 49.4518C46.9825 49.7436 47.2865 50.0546 47.5709 50.3832C47.8532 50.7103 48.117 51.053 48.3609 51.4098C48.6065 51.7695 48.8339 52.1414 49.0422 52.524C49.4688 53.3143 49.8306 54.138 50.1239 54.9871C50.4345 55.8814 50.6957 56.7922 50.9064 57.7152C51.327 59.5174 51.6221 61.4264 51.9358 63.7382C52.3548 66.107 52.9321 68.5164 53.4905 70.8464V70.8468C53.8527 72.3581 54.2272 73.9213 54.5562 75.4631C54.9254 77.1928 55.1966 78.7099 55.3851 80.1013C55.6023 81.6488 55.7199 83.2087 55.7372 84.7713C55.743 85.5691 55.7169 86.36 55.6596 87.1214C55.5995 87.9204 55.5031 88.715 55.3729 89.4831C55.5639 89.758 55.7269 90.0515 55.8593 90.3591C55.9411 90.4998 55.9814 90.6607 55.9757 90.8234C55.9704 90.982 55.9263 91.1368 55.8474 91.2744C55.7766 91.4067 55.6717 91.5176 55.5438 91.5957C55.4158 91.6738 55.2694 91.7163 55.1196 91.7187H55.1191C55.1067 91.7187 55.094 91.7187 55.0814 91.7177C54.8326 91.6959 54.5808 91.6713 54.3372 91.6476H54.3362C53.7175 91.5874 53.0778 91.5249 52.4426 91.5013C51.1537 91.4564 49.7658 91.4346 48.1997 91.4346C47.2866 91.4346 46.2944 91.4419 45.0771 91.4577L44.7424 91.4621C39.7753 91.524 34.727 91.6116 29.8448 91.6963C22.5628 91.8221 15.0322 91.953 7.62496 92.001ZM34.7364 64.2091C34.5667 64.9425 34.8404 65.539 35.1301 66.1706C35.2938 66.5042 35.4298 66.8509 35.5366 67.2069C35.6055 67.4585 35.5792 67.847 35.556 68.1897C35.5466 68.3295 35.5376 68.4614 35.5366 68.5686C35.5495 68.774 35.6591 69.0007 35.7654 69.2198C35.9006 69.4989 36.0403 69.7875 35.9927 70.0472C35.8808 70.6575 35.5827 71.2703 35.2943 71.863C35.0487 72.3679 34.7947 72.8899 34.663 73.4C34.5953 73.6488 34.5634 73.906 34.5681 74.1638C34.5746 74.4262 34.6318 74.6849 34.7365 74.9255C35.1958 75.8307 36.5798 76.295 37.4956 76.602L37.5002 76.6036C37.7602 76.7014 38.0295 76.772 38.304 76.8145C38.6012 76.8611 38.9017 76.8841 39.2025 76.8831C40.1185 76.8787 41.0255 76.7023 41.8766 76.3629C42.279 76.2041 42.661 75.9974 43.0144 75.7473C43.3342 75.5242 43.612 75.2459 43.8347 74.9254C44.2045 74.3743 44.6178 73.2799 44.9497 72.4006C45.154 71.8598 45.3303 71.3929 45.4619 71.1354L45.54 70.0427C45.6309 68.7597 45.7273 67.2952 45.7202 66.1524C45.7125 64.8832 45.579 64.1761 45.3127 63.9907C44.7209 63.5787 43.8718 63.2734 42.7889 63.0834C41.7726 62.9179 40.7442 62.8397 39.7146 62.8498C38.562 62.8498 37.5503 62.9272 36.9047 62.9921C36.1545 63.0676 35.6808 63.1477 35.6405 63.1743C35.5486 63.235 35.4705 63.2808 35.4018 63.3212C35.2111 63.4334 35.0961 63.5011 34.9588 63.7184C34.7763 63.7427 34.59 63.7683 34.4053 63.7946C34.2828 63.8348 34.2185 63.918 34.2342 64.0171C34.2469 64.0804 34.2832 64.1364 34.3359 64.1736C34.4002 64.2207 34.4782 64.2453 34.5579 64.2437C34.6189 64.2432 34.6794 64.2314 34.7363 64.2091H34.7364Z" fill="white"/>
<path d="M7.62383 91.9978C7.53805 92.0003 7.45277 91.9838 7.37415 91.9493C7.29553 91.9148 7.22554 91.8632 7.16921 91.7983C7.10272 91.7147 7.05469 91.6178 7.0283 91.5142C7.0019 91.4106 6.99775 91.3025 7.01612 91.1972C7.09404 90.68 7.16921 90.1555 7.24216 89.6483L7.24392 89.6359C7.28365 89.3597 7.32468 89.0735 7.36563 88.7925C5.78346 89.2233 4.15247 89.4481 2.51297 89.461C1.82107 89.4619 1.12994 89.4149 0.444503 89.3203C-0.244348 89.2247 -0.92472 89.0755 -1.59044 88.8739C-1.62228 88.8414 -1.63415 88.8148 -1.6258 88.7948C-1.61126 88.7601 -1.53808 88.744 -1.3954 88.744C-1.34181 88.744 -1.28639 88.746 -1.22913 88.7484L-1.21589 88.749C-1.16675 88.7509 -1.12036 88.7529 -1.08293 88.7529C-1.05744 88.754 -1.03191 88.752 -1.00692 88.7468C-1.55885 88.3723 -2.00859 87.8654 -2.31519 87.2722C-2.46299 86.986 -2.58217 86.6857 -2.67099 86.3759C-2.76169 86.0583 -2.82844 85.7343 -2.8707 85.4066C-2.95273 84.7238 -2.97322 84.035 -2.93194 83.3485C-2.89856 82.6524 -2.8263 81.9631 -2.75649 81.2966C-2.71822 80.9279 -2.6814 80.5797 -2.65254 80.2418C-2.40758 78.6586 -2.18445 77.0144 -1.96866 75.4239V75.4226C-1.41752 71.3617 -0.847621 67.1627 0.175591 63.1653C0.439911 62.1327 0.729261 61.1361 1.03568 60.2033C1.36407 59.2035 1.72522 58.2365 2.10919 57.3291C2.51588 56.3678 2.96292 55.4382 3.4379 54.566C3.93058 53.6603 4.47346 52.7829 5.064 51.9379C5.68536 51.1002 6.37472 50.3154 7.12504 49.5914C7.87631 48.8658 8.69161 48.2099 9.56094 47.6316C10.4266 47.0557 11.3494 46.5708 12.3144 46.1849C13.2837 45.7982 14.2952 45.5273 15.3277 45.3779L15.4433 45.3621L15.5597 45.3468C15.722 45.326 15.8897 45.3065 16.0519 45.2876C17.1048 45.1649 18.1935 45.0379 19.0838 44.4827C19.5468 44.1122 19.9028 43.6257 20.2478 43.1555C20.5081 42.8003 20.7537 42.465 21.0259 42.2078C21.1545 42.0826 21.2997 41.9758 21.4574 41.8905C21.6113 41.8081 21.7801 41.7577 21.9539 41.7422L22.7138 42.2095L27.1275 44.396C27.5533 44.5155 27.8772 44.6487 28.0901 44.7919C28.3029 44.9352 28.411 45.0924 28.411 45.2593V48.6748C28.411 48.9023 28.6136 49.279 29.0132 49.7945C29.4127 50.3101 30.0207 50.9789 30.8197 51.7824L32.3033 50.3002L32.2701 50.1061C32.1296 49.2735 32.0583 48.709 32.0583 48.4279C32.0583 48.3522 32.1502 48.222 32.3304 48.0407C32.5897 47.7908 32.8622 47.5552 33.1469 47.3349C33.8693 46.7608 34.968 45.9642 36.4127 44.9674L37.6827 43.7691L37.5473 43.3564C37.7471 43.3668 37.9448 43.4025 38.1356 43.4628C38.3264 43.5218 38.5094 43.6035 38.6807 43.7062C39.0346 43.9196 39.2789 44.1954 39.3684 44.4828C39.5522 44.7069 39.6338 45.1687 39.7129 45.6153V45.6157C39.7703 45.9407 39.8245 46.2476 39.9149 46.4626C40.4974 46.5555 41.0626 46.6734 41.5946 46.8129C42.104 46.9457 42.6058 47.1062 43.0978 47.2938C43.5552 47.4686 44.002 47.6703 44.4357 47.8981C44.8448 48.1134 45.2403 48.3541 45.6196 48.6187C45.9836 48.8732 46.3313 49.1503 46.6607 49.4484C46.9826 49.7402 47.2866 50.0513 47.5709 50.38C47.8532 50.7071 48.117 51.0498 48.361 51.4066C48.6065 51.7663 48.8339 52.1382 49.0422 52.5208C49.4689 53.311 49.8307 54.1346 50.1241 54.9836C50.4346 55.8779 50.6959 56.7887 50.9066 57.7117C51.3272 59.5139 51.6223 61.4229 51.936 63.7347C52.355 66.1035 52.9323 68.5129 53.4906 70.8429V70.8433C53.8529 72.3546 54.2273 73.9178 54.5564 75.4596C54.9256 77.1893 55.1967 78.7064 55.3853 80.0978C55.6024 81.6453 55.7201 83.2052 55.7374 84.7678C55.7431 85.5656 55.717 86.3564 55.6598 87.1179C55.5997 87.9169 55.5032 88.7114 55.3731 89.4796C55.5641 89.7545 55.7271 90.048 55.8595 90.3556C55.9412 90.4963 55.9816 90.6572 55.9759 90.8199C55.9705 90.9785 55.9265 91.1333 55.8476 91.2709C55.7768 91.4032 55.6719 91.5141 55.544 91.5922C55.416 91.6703 55.2695 91.7128 55.1197 91.7152H55.1193C55.1069 91.7152 55.0942 91.7152 55.0815 91.7143C54.8337 91.6924 54.5824 91.6683 54.3395 91.6443H54.3374C53.7182 91.584 53.0782 91.5216 52.4428 91.498C51.1535 91.4531 49.7656 91.4313 48.1997 91.4313C47.2868 91.4313 46.2946 91.4385 45.0773 91.4543L44.7425 91.4588C39.7773 91.5207 34.7289 91.6082 29.8468 91.6928H29.8451C22.5626 91.8191 15.0321 91.9496 7.62483 91.9979L7.62383 91.9978ZM20.2107 71.7604L19.5965 76.2254L21.0739 79.4137L24.419 78.2843L29.87 76.8443L32.9976 73.6643L34.762 73.0706C34.6529 73.3687 34.588 73.6812 34.5692 73.9982C34.5531 74.3151 34.6103 74.6314 34.7364 74.9225C35.1957 75.8278 36.5797 76.2921 37.4955 76.5991L37.5001 76.6006C37.76 76.6984 38.0294 76.7691 38.3038 76.8116C38.6011 76.8582 38.9015 76.8812 39.2024 76.8802C40.1184 76.8758 41.0254 76.6994 41.8764 76.36C42.2789 76.2012 42.6609 75.9945 43.0143 75.7444C43.334 75.5212 43.6117 75.2429 43.8345 74.9224C44.2042 74.3713 44.6175 73.2769 44.9495 72.3977C45.1537 71.8568 45.33 71.39 45.4616 71.1324L45.5626 69.7132C45.6522 68.4243 45.7331 67.0838 45.7185 66.0165C45.7024 64.8306 45.5695 64.167 45.3123 63.988C44.7206 63.576 43.8714 63.2708 42.7885 63.0806C41.7723 62.9152 40.7438 62.837 39.7143 62.847C38.5616 62.847 37.55 62.9245 36.9043 62.9894C36.1541 63.0648 35.6805 63.145 35.6401 63.1716C35.5483 63.2322 35.4702 63.278 35.4014 63.3185C35.2108 63.4306 35.0957 63.4984 34.9585 63.7156L34.8617 63.7286L35.406 62.9887L35.2134 62.8855C34.5288 62.5217 33.956 62.245 33.5108 62.0631C33.0656 61.8812 32.7354 61.789 32.5294 61.789C32.314 61.789 31.9811 61.959 31.5398 62.2943C30.9508 62.7626 30.3929 63.269 29.8697 63.8102L29.7516 63.8649C29.0597 64.1801 28.3854 64.5327 27.7316 64.9212C27.1974 65.2468 26.7938 65.5518 26.5318 65.8277L26.513 65.8476C25.9834 66.417 24.9208 67.9517 23.3535 70.4091L21.0734 71.7606L20.2107 71.7604ZM35.4953 67.0643L34.671 65.4829V64.2265C34.6932 64.221 34.715 64.2141 34.7364 64.2059C34.5668 64.9394 34.8403 65.5359 35.13 66.1675C35.2706 66.4584 35.3926 66.7579 35.4954 67.0643L35.4953 67.0643Z" fill="white"/>
<path d="M7.77245 91.5081C7.68281 91.5081 7.5945 91.4864 7.51502 91.4449L7.49642 91.4347L7.46519 91.4167C7.35295 91.3482 7.26515 91.246 7.21434 91.1245C7.15827 91.0048 7.15006 90.868 7.19138 90.7424C7.30139 90.4217 7.39236 90.0948 7.46381 89.7633C7.53117 89.478 7.60075 89.1832 7.69537 88.9011L7.53462 88.973L7.32312 89.065C6.4607 89.4499 5.57327 89.7758 4.66691 90.0404C3.6636 90.3227 2.75629 90.4599 1.89313 90.4599C1.25551 90.4622 0.620384 90.38 0.00424457 90.2155C-0.548079 90.0712 -1.07139 89.8325 -1.54263 89.5097C-2.0147 89.1878 -2.40355 88.7579 -2.67707 88.2555C-2.93817 87.7498 -3.11268 87.2037 -3.1933 86.64C-3.27481 86.0766 -3.31867 85.5083 -3.32458 84.939C-3.36021 83.5413 -3.28599 82.1429 -3.10259 80.7569C-2.98749 79.82 -2.82035 78.8903 -2.60197 77.972C-2.72943 77.859 -2.81048 77.7026 -2.8294 77.5331C-2.91727 76.8223 -2.80827 76.0849 -2.70294 75.3717V75.3698C-2.67906 75.208 -2.65433 75.0407 -2.63267 74.8781C-2.51234 73.9749 -2.38818 73.1428 -2.25292 72.3344C-1.95867 70.5749 -1.62094 68.8592 -1.24915 67.2351C-0.910729 65.7567 -0.50962 64.255 -0.0569172 62.7719C0.385681 61.322 0.889059 59.8515 1.43944 58.4017L1.5352 58.1508C2.10433 56.6678 2.65134 55.3986 3.20738 54.2707C3.82316 53.0032 4.53724 51.7861 5.34306 50.6305C5.72141 50.0829 6.13264 49.5588 6.57448 49.0613C7.01666 48.5646 7.5102 48.1163 8.0468 47.724C8.98657 47.0433 10.097 46.4889 11.4417 46.0285C12.0411 45.8241 12.6507 45.6508 13.2679 45.5092C13.8664 45.3712 14.4947 45.2574 15.1356 45.1699C15.3256 45.144 15.5203 45.1192 15.7086 45.0952C16.804 44.9555 17.9366 44.8114 18.9505 44.3643C18.915 44.2972 18.8935 44.2235 18.8874 44.1477C18.8813 44.072 18.8907 43.9958 18.915 43.9238C18.9606 43.7757 19.0551 43.6476 19.1829 43.5604C19.925 43.0694 20.6187 42.4489 21.2897 41.8491C21.3879 41.7614 21.4894 41.6706 21.5899 41.5814C21.6302 41.5442 21.6828 41.5233 21.7376 41.5227C21.7757 41.5232 21.8129 41.5332 21.846 41.552C21.8791 41.5708 21.9069 41.5977 21.9268 41.6301C21.9459 41.6622 21.9561 41.6988 21.9563 41.7362C21.9565 41.7736 21.9467 41.8103 21.9279 41.8426C21.6792 42.336 21.3838 42.8045 21.046 43.2415C20.8271 43.5133 20.5934 43.7687 20.3734 44.0042C20.9552 44.5084 21.4491 45.1243 21.9273 45.7198L21.9566 45.7563C22.1055 45.9416 22.254 46.1312 22.3978 46.3146C22.8507 46.8922 23.3189 47.4893 23.8422 48.0208C24.1694 48.3565 24.5335 48.6538 24.9275 48.9072C25.3216 49.1584 25.7435 49.363 26.1846 49.517L26.3683 49.5809C26.8385 49.7366 27.2916 49.9399 27.7207 50.1877C28.1945 50.4758 28.5391 50.8082 28.774 51.2037C28.7917 51.2333 28.801 51.267 28.801 51.3015C28.801 51.3359 28.7917 51.3697 28.774 51.3992C28.7564 51.4312 28.7308 51.4581 28.6998 51.4772C28.6687 51.4963 28.6333 51.5069 28.5969 51.5082C28.5621 51.508 28.5282 51.498 28.4989 51.4793C27.9281 51.1251 27.2818 50.948 26.6563 50.7768C26.2996 50.6791 25.9308 50.5781 25.5778 50.4452C25.1138 50.2698 24.6698 50.0452 24.2535 49.7751C23.8378 49.5039 23.4486 49.1937 23.0914 48.8487C22.491 48.272 21.9612 47.6177 21.4488 46.9851L21.4462 46.9819C21.3416 46.8527 21.2334 46.7192 21.1263 46.5883C20.5055 45.842 19.822 45.1504 19.0833 44.5211C18.5174 44.8935 17.9057 45.1907 17.2634 45.4052C16.6494 45.6193 16.0135 45.7821 15.3056 45.9576L15.1606 45.9936C14.3854 46.1859 13.7561 46.3613 13.1802 46.5459C12.5263 46.7516 11.8855 46.9972 11.2615 47.2814C10.7071 47.5325 10.1678 47.8158 9.64634 48.1299C9.12455 48.4432 8.63483 48.8072 8.18428 49.2167C7.20493 50.1174 6.44833 51.2808 5.81597 52.3007C5.06638 53.5232 4.40611 54.7985 3.84035 56.1166C3.33514 57.2751 2.84477 58.5513 2.29776 60.132C1.81437 61.5292 1.36228 62.965 0.954124 64.3997C0.549417 65.8225 0.177242 67.2812 -0.151912 68.7352C-0.475785 70.1661 -0.747453 71.6287 -0.982455 73.2063C-1.08886 73.9204 -1.18546 74.6515 -1.26966 75.3794C-1.2914 75.5672 -1.30931 75.7596 -1.32669 75.9458V75.9474C-1.38111 76.5304 -1.43738 77.1333 -1.61703 77.6976C-1.65497 77.831 -1.7346 77.9487 -1.84423 78.0334C-1.93908 78.1029 -2.05375 78.1399 -2.17124 78.139C-2.18065 78.139 -2.19015 78.139 -2.19949 78.1383L-2.24832 78.7504C-2.31063 79.5353 -2.37317 80.3713 -2.39376 81.204C-2.43074 82.6972 -2.40479 84.0349 -2.31423 85.2931L-2.30037 85.4789C-2.27032 85.9926 -2.18764 86.5019 -2.05366 86.9987C-1.88931 87.5559 -1.64451 87.9876 -1.30518 88.3187C-0.948773 88.6666 -0.477546 88.9292 0.0951831 89.0989C0.616459 89.2466 1.15545 89.3222 1.69717 89.3236C1.73039 89.324 1.76346 89.3242 1.79554 89.3242C2.36711 89.3211 2.93699 89.2617 3.49696 89.1468C4.06111 89.031 4.61667 88.8765 5.15973 88.6845C6.25367 88.3045 7.31355 87.806 8.3386 87.3237L8.60391 87.199C9.68997 86.6891 10.7907 86.1373 11.8756 85.5588C12.9319 84.9954 14.0045 84.3902 15.0632 83.76C16.1205 83.1309 17.187 82.4677 18.2329 81.7898C18.7409 81.4604 19.2541 81.1196 19.7585 80.7771C19.8592 80.7087 19.9595 80.6369 20.0566 80.5674C20.2372 80.4381 20.424 80.3045 20.6154 80.1909C20.5435 80.1254 20.4934 80.0393 20.4721 79.9443C20.4619 79.8956 20.4616 79.8453 20.4711 79.7965C20.4807 79.7477 20.4999 79.7013 20.5276 79.66C20.3141 79.4712 20.1295 79.2518 19.9797 79.009C19.8256 78.7598 19.6986 78.4947 19.6009 78.2184C19.4102 77.6751 19.3024 77.1061 19.2812 76.5306C19.2525 75.7883 19.3435 75.0375 19.4315 74.3115L19.432 74.3076C19.446 74.1914 19.4606 74.0712 19.4744 73.9531C19.5264 73.509 19.5905 73.0709 19.6519 72.663C19.6626 72.5919 19.6719 72.521 19.6819 72.4459C19.6954 72.3436 19.7094 72.2377 19.7267 72.1334C18.5906 72.7592 17.415 73.3632 16.2326 73.9291C15.066 74.4874 13.8584 75.0248 12.6432 75.5266C11.4408 76.0231 10.2053 76.4802 8.86601 76.9239L8.60736 77.0092C7.87541 77.2493 7.31003 77.423 6.77427 77.5719C6.09828 77.76 5.48865 77.9024 4.91057 78.0072C4.90683 78.0079 4.90303 78.0082 4.89924 78.0082C4.88252 78.0075 4.86652 78.0013 4.85371 77.9905C4.8409 77.9797 4.83201 77.965 4.82843 77.9486C4.82545 77.9364 4.82711 77.9235 4.8331 77.9125C4.83909 77.9015 4.84897 77.8931 4.86081 77.8889C5.66923 77.5314 6.50957 77.2062 7.3222 76.8911C7.73372 76.7317 8.15932 76.5668 8.57536 76.4001L8.77852 76.3172C8.75398 76.3158 8.72962 76.3123 8.70572 76.3066C8.19285 76.1824 7.67577 76.0086 7.17599 75.8404L7.17477 75.84C6.9697 75.771 6.75766 75.6997 6.55022 75.6334C6.34277 75.567 6.12323 75.5072 5.91074 75.4492C5.44089 75.3214 4.95496 75.1892 4.53173 74.9705C4.52269 74.9663 4.51537 74.9591 4.51101 74.9501C4.50664 74.9412 4.5055 74.931 4.50777 74.9213C4.51017 74.9095 4.51625 74.8989 4.52513 74.8908C4.53402 74.8828 4.54524 74.8778 4.55714 74.8766C4.62665 74.8718 4.69945 74.8693 4.77354 74.8693C5.24722 74.8693 5.73988 74.9669 6.21631 75.0611C6.37791 75.0931 6.53016 75.1234 6.68325 75.1501L6.93862 75.1949C7.33001 75.2639 7.78485 75.3471 8.22944 75.4578C8.23771 75.3852 8.26042 75.315 8.29622 75.2513C8.33202 75.1876 8.38019 75.1318 8.43788 75.0871C9.47525 74.3172 9.56221 72.8971 9.63899 71.6441V71.6435C9.65476 71.3868 9.66961 71.1443 9.69204 70.9122L9.79101 69.8885C9.95888 68.1603 10.1463 66.3228 10.4288 64.5268C10.431 64.5097 10.4396 64.494 10.4528 64.483C10.466 64.4719 10.483 64.4663 10.5001 64.4673C10.5229 64.4663 10.5451 64.4743 10.5621 64.4895C10.579 64.5047 10.5894 64.526 10.5909 64.5487C10.6009 66.0591 10.5247 67.5903 10.4511 69.071C10.4172 69.7515 10.3822 70.4551 10.356 71.1485L10.3432 71.5096L10.3412 71.5665C10.296 72.9068 10.2494 74.2925 9.40736 75.323C9.45953 75.2922 9.51884 75.2757 9.57936 75.2751C9.61834 75.2744 9.65699 75.2824 9.69251 75.2985C9.72803 75.3146 9.75953 75.3384 9.78473 75.3682C9.89935 75.4932 9.96513 75.6555 9.96998 75.8252C10.7125 75.5132 11.4875 75.1781 12.2731 74.8294C13.4797 74.2937 14.706 73.7116 15.918 73.0996C17.0972 72.5039 18.2945 71.8639 19.4764 71.197C19.5271 71.1663 19.5833 71.1461 19.6418 71.1374C19.7003 71.1288 19.76 71.1318 19.8173 71.1464C19.8746 71.161 19.9285 71.1869 19.9757 71.2225C20.023 71.2582 20.0627 71.3029 20.0926 71.354L20.1106 71.3514C20.1137 71.351 20.1167 71.3507 20.1198 71.3506L20.1376 71.3498H20.1396C20.2456 71.2927 20.3644 71.2637 20.4846 71.2654C20.7518 71.2725 21.007 71.3783 21.2011 71.5624C21.2079 71.569 21.2142 71.5762 21.2198 71.5825L21.224 71.5874C21.5882 71.4231 21.9243 71.2023 22.2198 70.9331C22.5318 70.6466 22.8206 70.3358 23.0835 70.0035C23.3261 69.7009 23.5687 69.3636 23.8253 68.9723C24.0355 68.6518 24.2411 68.3167 24.4401 67.9926C24.7419 67.5009 25.054 66.9925 25.3921 66.5167C25.7246 66.0372 26.1052 65.5932 26.528 65.1915C26.9889 64.768 27.5058 64.4099 28.0641 64.1275C28.6221 63.8463 29.2067 63.6216 29.8094 63.457C29.8072 63.4393 29.8089 63.4213 29.8146 63.4044C29.8203 63.3874 29.8296 63.372 29.8421 63.3591C29.8558 63.3408 29.8732 63.3255 29.893 63.3142C29.9129 63.3028 29.9348 63.2956 29.9576 63.293C29.9822 63.294 30.0063 63.3005 30.0281 63.3121C30.0336 63.3147 30.038 63.3189 30.0409 63.3242L30.1585 63.1229C30.244 62.9771 30.2926 62.8984 30.3116 62.8745C30.4475 62.703 30.589 62.5308 30.7326 62.3627C30.9707 62.0665 31.2537 61.8095 31.5713 61.6012C31.8281 61.4423 32.1249 61.3601 32.4267 61.3642C32.8553 61.3642 33.2942 61.5078 33.7183 61.6467L33.7281 61.6498C34.0117 61.7426 34.2993 61.8391 34.5777 61.9323L34.5854 61.9348C34.7316 61.9838 34.8828 62.0345 35.0315 62.0839L35.0763 62.0987C35.1031 62.1073 35.1299 62.1158 35.16 62.1251C35.3142 62.1677 35.4637 62.2261 35.6059 62.2993C35.7404 62.3673 35.8486 62.4782 35.9133 62.6145C35.978 62.7509 35.9957 62.9049 35.9635 63.0524C37.1431 62.7598 38.3544 62.6153 39.5696 62.6223C40.5733 62.6252 41.5752 62.7085 42.5657 62.8714C43.5439 63.0312 44.5101 63.2576 45.4576 63.5489C45.5185 63.5656 45.574 63.5979 45.6186 63.6426C45.6632 63.6874 45.6955 63.7429 45.7121 63.8039C45.8862 64.6883 46.0058 65.5826 46.0702 66.4818C46.1342 67.381 46.1287 68.2838 46.0536 69.1822C45.9888 69.9558 45.8651 70.7233 45.6837 71.4781C45.5015 72.2326 45.2491 72.9684 44.9297 73.6756L44.8929 73.7558C44.5087 74.5885 44.1171 75.2476 43.6959 75.771C43.4527 76.0792 43.1725 76.3561 42.8616 76.5955C42.5595 76.8279 42.2168 77.0018 41.8512 77.1083C41.4636 77.2101 41.0637 77.2577 40.6631 77.2495C40.3151 77.2495 39.9616 77.2243 39.6196 77.1999C39.4401 77.1871 39.2544 77.1739 39.0752 77.1649C38.8774 77.1549 38.675 77.1467 38.4793 77.1387H38.4788C37.8006 77.1112 37.0992 77.0828 36.4234 76.9752C36.0453 76.9187 35.68 76.7964 35.3441 76.6137C35.0096 76.4285 34.7176 76.1752 34.4867 75.8701C34.0701 75.3206 33.8509 74.6503 33.6762 74.0081C33.5822 74.0381 33.5049 74.0652 33.4333 74.0933C33.1025 74.2307 32.8027 74.4334 32.5517 74.6893C32.3047 74.929 32.0792 75.1963 31.8609 75.4548C31.6002 75.7793 31.3164 76.0844 31.0117 76.3678C30.4933 76.8196 29.9068 77.1865 29.2741 77.4548C28.7376 77.682 28.1845 77.8677 27.6196 78.0101C27.0575 78.1568 26.4775 78.2768 25.9167 78.3929L25.9119 78.3939C25.6706 78.4438 25.421 78.4955 25.1761 78.5486L25.0795 78.5697C24.6432 78.6656 24.0722 78.7988 23.5204 78.979C23.0092 79.1397 22.5171 79.3561 22.0529 79.6244C22.0378 79.7822 21.9637 79.9284 21.8455 80.0338C21.9269 80.1089 21.9825 80.208 22.004 80.3167C22.0245 80.4344 21.9994 80.5555 21.9339 80.6554C21.6008 81.1853 21.0613 81.5271 20.5401 81.8578L20.5394 81.8582C20.4385 81.9222 20.3341 81.9886 20.2332 82.0546L20.1931 82.0812C19.59 82.4818 18.9731 82.8802 18.3597 83.2649C17.1579 84.0188 15.9059 84.7512 14.5311 85.5038C13.4637 86.0883 12.3999 86.6469 11.3693 87.164C10.2833 87.7087 9.19846 88.2259 8.14501 88.7005C8.20746 89.0546 8.24329 89.4128 8.25218 89.7723C8.2619 90.0662 8.28632 90.3594 8.32535 90.6508L8.34066 90.7428C8.36535 90.8494 8.36176 90.9607 8.33027 91.0654C8.29878 91.1702 8.24048 91.2649 8.16116 91.3401L8.14371 91.3561V91.354L8.1284 91.3682L8.12319 91.3725L8.12495 91.3712C8.10653 91.3883 8.08696 91.4042 8.06639 91.4187L8.0409 91.4351C7.95977 91.4836 7.86691 91.5089 7.77245 91.5081ZM20.2142 72.2811C20.215 72.3343 20.2151 72.389 20.2153 72.4373C20.2153 72.5157 20.216 72.5898 20.2179 72.6636C20.2267 72.9987 20.2313 73.3559 20.2313 73.7253C20.2313 73.9928 20.2261 74.2648 20.221 74.5278C20.2121 74.9938 20.2028 75.4755 20.2225 75.9488C20.233 76.2807 20.2695 76.6112 20.3318 76.9374C20.393 77.2639 20.5023 77.5796 20.656 77.8739C20.7635 78.0753 20.8978 78.2611 21.0551 78.4263C21.2093 78.5852 21.3771 78.7302 21.5567 78.8596C22.0098 78.5865 22.4884 78.3582 22.9856 78.1779C23.4861 77.9957 23.9967 77.8428 24.5148 77.7198C24.9233 77.62 25.342 77.5298 25.7472 77.4424H25.7477C26.584 77.262 27.4488 77.0755 28.2731 76.7966C28.8644 76.6046 29.426 76.3303 29.9413 75.9819C30.4413 75.6367 30.8396 75.1709 31.2247 74.7208L31.2291 74.7157C31.2625 74.6766 31.296 74.6376 31.3295 74.5985L31.3964 74.5212C31.8212 74.0328 32.3007 73.5429 32.9268 73.2669C33.1417 73.1795 33.3628 73.1082 33.5883 73.0536C33.9563 72.9544 34.3365 72.8518 34.6234 72.6279C34.8617 72.4418 34.8855 72.1773 34.9108 71.8972L34.9123 71.8807C34.8449 71.8901 34.777 71.8947 34.709 71.8943C34.5392 71.8901 34.37 71.8742 34.2024 71.8467H34.2014C34.1359 71.8375 34.0683 71.828 34.0029 71.8203L33.8492 71.8023C33.5694 71.7738 33.2919 71.7265 33.0185 71.6606C33.0074 71.6572 32.9977 71.6503 32.9908 71.6409C32.9839 71.6315 32.9801 71.6202 32.9801 71.6086C32.9801 71.5969 32.9839 71.5856 32.9908 71.5762C32.9977 71.5668 33.0074 71.5599 33.0185 71.5565C33.3293 71.4831 33.6447 71.4313 33.9626 71.4016L34.0029 71.3968L34.0816 71.387C34.1198 71.3819 34.1593 71.3765 34.1975 71.3712H34.1984C34.3661 71.344 34.5354 71.3282 34.7052 71.3241C34.804 71.3231 34.9027 71.3332 34.9993 71.3541C35.0533 71.1476 35.1333 70.9489 35.2374 70.7627C35.2834 70.6801 35.3407 70.5953 35.4016 70.5056C35.5421 70.2985 35.6873 70.0836 35.7143 69.8616C35.7246 69.7611 35.7053 69.6598 35.659 69.5701L35.6437 69.5414C35.6266 69.5062 35.6013 69.4756 35.57 69.4523C35.562 69.4593 35.5524 69.4642 35.542 69.4665C35.4423 69.4991 35.3343 69.4957 35.2369 69.4569C35.1394 69.418 35.0586 69.3462 35.0085 69.2538C34.7048 69.2855 34.3995 69.3006 34.0942 69.2991C33.938 69.3012 33.7904 69.3032 33.6481 69.3096L33.2222 69.3302C33.0821 69.3366 32.8975 69.344 32.713 69.3441C32.4281 69.3491 32.1435 69.3236 31.864 69.2681C31.8488 69.2638 31.8354 69.2548 31.8257 69.2424C31.8159 69.23 31.8103 69.2149 31.8096 69.1991C31.8073 69.1852 31.8097 69.1709 31.8163 69.1585C31.8228 69.146 31.8333 69.136 31.846 69.13C32.3024 68.9344 32.8335 68.8559 33.3463 68.7801C33.4209 68.7691 33.498 68.7577 33.5721 68.7463C33.7813 68.7141 33.9949 68.6865 34.2016 68.6599L34.2067 68.6592C34.3089 68.646 34.4145 68.6325 34.5183 68.6184C34.5855 68.6094 34.6554 68.5981 34.7232 68.5873H34.7238C34.8709 68.561 35.0193 68.5426 35.1684 68.532C35.3017 68.3658 35.3907 68.1685 35.4273 67.9584C35.4628 67.7554 35.4533 67.547 35.3996 67.348C35.3488 67.1571 35.2574 66.9794 35.1316 66.8272C35.0065 66.6748 34.8442 66.5571 34.6606 66.4857C34.5509 66.5333 34.4323 66.5569 34.3128 66.5547C34.2133 66.5526 34.114 66.5445 34.0154 66.5304H34.0144C33.9561 66.5233 33.8959 66.5161 33.8336 66.5107C33.498 66.4818 33.2201 66.4684 32.9591 66.4684L32.9273 66.4684C32.676 66.4742 32.4252 66.4926 32.1758 66.5237C31.9182 66.5559 31.6592 66.5745 31.3997 66.5794C31.2921 66.5799 31.1845 66.5741 31.0775 66.5622C31.0482 66.5578 31.0207 66.5453 30.998 66.5261C30.9753 66.5069 30.9585 66.4818 30.9492 66.4535C30.943 66.4333 30.9432 66.4116 30.9498 66.3914C30.9564 66.3713 30.9692 66.3537 30.9863 66.3412C31.2252 66.1553 31.4988 66.0192 31.791 65.9409C32.0853 65.859 32.3853 65.7994 32.6885 65.7625L32.8094 65.7463C32.8622 65.7394 32.9189 65.7315 32.9737 65.7238C33.1308 65.7019 33.3087 65.6772 33.4898 65.6607C33.519 65.6025 33.5623 65.5525 33.6158 65.5155C33.6693 65.4784 33.7313 65.4554 33.796 65.4487C33.8364 65.4432 33.8774 65.4396 33.9171 65.4363L33.9305 65.4351L33.9298 65.4307C33.9758 65.429 34.0206 65.4157 34.0601 65.3919C34.0995 65.368 34.1322 65.3345 34.1551 65.2945C34.2801 65.095 34.2539 64.7288 34.1801 64.5538C34.0908 64.3422 33.9067 64.1884 33.6328 64.0966C33.3795 64.0208 33.1158 63.9855 32.8515 63.9922C32.7367 63.9922 32.6171 63.9967 32.4764 64.0062C31.7938 64.0519 31.1168 64.1603 30.454 64.3301C29.7907 64.4959 29.1487 64.7381 28.541 65.052C27.952 65.367 27.4204 65.7796 26.9687 66.2724C26.5188 66.7657 26.1144 67.2988 25.7603 67.8651L25.7259 67.9188C25.6076 68.1029 25.4873 68.2972 25.3711 68.485L25.3703 68.4862C25.07 68.9712 24.7595 69.4727 24.4077 69.9317C24.0689 70.3929 23.659 70.7971 23.1933 71.129C22.5135 71.5941 21.8623 71.8983 21.2582 72.0331C21.2345 72.0762 21.2021 72.1138 21.1632 72.1438C21.1242 72.1737 21.0795 72.1952 21.0319 72.2069L20.9848 72.2177C20.7883 72.2621 20.5877 72.2862 20.3863 72.2896C20.3288 72.2899 20.2714 72.2871 20.2142 72.2811ZM9.06695 76.1702C9.06048 76.1802 9.05342 76.1898 9.04582 76.1989L9.03419 76.2124L9.09451 76.188L9.06695 76.1702ZM37.9622 63.0988C37.2833 63.0988 36.592 63.1171 35.9422 63.1358C35.8728 63.3463 35.7417 63.5309 35.5661 63.6657C35.3971 63.8054 35.1882 63.8877 34.9695 63.9008C35.1312 64.1529 35.2257 64.4423 35.244 64.7414C35.2658 65.0364 35.2168 65.3324 35.101 65.6046C35.3452 65.7009 35.5711 65.8384 35.7689 66.0112C35.9719 66.1893 36.1394 66.4044 36.2625 66.645C36.3484 66.8122 36.4127 66.9897 36.4538 67.1732C36.4932 67.3497 36.5102 67.5304 36.5046 67.7111C36.4916 68.071 36.3941 68.4228 36.2202 68.7379C36.372 68.8791 36.4904 69.0527 36.5666 69.2457C36.6464 69.4407 36.6838 69.6505 36.6764 69.8612C36.659 70.2688 36.4436 70.6227 36.2353 70.9647C36.2084 71.0089 36.1807 71.0543 36.1542 71.0988C35.9541 71.4345 35.9111 71.7371 35.8614 72.0875C35.8499 72.1683 35.8384 72.2518 35.8239 72.3385C35.7762 72.6486 35.6376 72.9375 35.4258 73.1686C35.2126 73.3908 34.9555 73.566 34.671 73.6831L34.7021 73.8058C34.7737 74.1061 34.8674 74.4006 34.9825 74.687C35.0951 74.9707 35.2619 75.2297 35.4736 75.4492C35.9882 75.9633 36.7706 75.9969 37.4609 76.0267C37.5202 76.0292 37.5735 76.0316 37.6263 76.0344L37.6617 76.0361C38.2096 76.0635 38.7664 76.0954 39.3049 76.1261H39.3061H39.3102L39.6787 76.1471L40.1829 76.1754C40.3411 76.1841 40.5274 76.193 40.7111 76.193C40.9961 76.1987 41.2805 76.1674 41.5574 76.0997C41.8409 76.0278 42.1053 75.8949 42.3323 75.7102C42.8064 75.3256 43.2479 74.7945 43.6446 74.1317C43.994 73.5371 44.2867 72.9108 44.5188 72.2612C44.7514 71.6197 44.9314 70.9603 45.057 70.2896C45.182 69.6196 45.2608 68.9418 45.2927 68.2609C45.3244 67.5783 45.3172 66.8944 45.2712 66.2126C45.228 65.5567 45.1497 64.8732 45.0384 64.1809C43.589 63.7099 42.0954 63.3885 40.5808 63.222C39.7108 63.1335 38.8367 63.0924 37.9622 63.0988ZM32.8202 62.9644C33.1295 62.9608 33.438 62.9955 33.7388 63.0676C34.0273 63.1369 34.2989 63.2636 34.5376 63.4402C34.5386 63.4385 34.5395 63.4369 34.5403 63.4352C34.5412 63.4336 34.5429 63.4303 34.5445 63.4276C34.6193 63.3203 34.7043 63.2206 34.7983 63.1298L34.8013 63.1266C34.8099 63.1184 34.8186 63.1098 34.8278 63.1002L34.879 63.0456L34.7619 63.005C34.5836 62.9418 34.3835 62.8662 34.2638 62.8209C34.2156 62.8026 34.1808 62.7895 34.1673 62.7847L34.1641 62.7836L34.0009 62.7283H34.0003C33.7401 62.64 33.4703 62.5487 33.2065 62.455C33.1594 62.4383 33.113 62.4209 33.0639 62.4023C32.8511 62.3223 32.6311 62.2395 32.4091 62.2395C32.3655 62.2394 32.322 62.2428 32.2789 62.2497C32.0566 62.2941 31.8466 62.387 31.664 62.5217C31.4679 62.662 31.2804 62.8141 31.1025 62.9769L31.1019 62.9774C31.0039 63.0636 30.9113 63.145 30.8196 63.2195L31.0358 63.1774C31.6112 63.067 32.2254 62.9645 32.8202 62.9644ZM47.4133 91.4358C47.3609 91.436 47.3101 91.4185 47.269 91.386C47.2466 91.3681 47.2282 91.3459 47.2147 91.3206C47.2012 91.2953 47.193 91.2675 47.1906 91.239L47.1562 90.9068C47.1238 90.4857 47.0442 90.0696 46.9189 89.6664C46.765 89.1899 46.6637 88.698 46.6169 88.1994C46.5284 87.4139 46.4889 86.6084 46.4562 85.8507L46.4332 85.3084C46.36 83.6141 46.3289 81.9583 46.3405 80.3869C46.3531 78.7001 46.4154 77.0451 46.5258 75.468L46.5426 75.2342C46.6121 74.287 46.6798 73.5618 46.7624 72.8821C46.8682 72.0119 46.9967 71.2408 47.1554 70.5248C47.5413 68.7828 48.1127 67.351 48.9024 66.1476C48.9075 66.1393 48.9147 66.1325 48.9232 66.1277C48.9317 66.123 48.9413 66.1205 48.951 66.1206C48.96 66.1206 48.9689 66.1225 48.977 66.1264C48.9851 66.1303 48.9922 66.136 48.9979 66.143C49.0031 66.1498 49.0067 66.1578 49.0084 66.1663C49.01 66.1748 49.0097 66.1836 49.0074 66.1919C48.6102 67.8226 48.2071 69.5748 47.9485 71.3397C47.847 72.033 47.7691 72.7428 47.7106 73.5095C47.6586 74.1923 47.6231 74.9052 47.6024 75.6883C47.5641 77.1427 47.5831 78.623 47.6018 80.0545V80.0685C47.6049 80.3101 47.6082 80.56 47.6111 80.8056L47.613 80.9688C47.6302 82.4793 47.6558 84.2665 47.7152 86.0698C47.722 86.277 47.7305 86.4886 47.739 86.693C47.7651 87.3374 47.7925 88.0038 47.7692 88.6559C47.754 88.9192 47.7209 89.1811 47.6703 89.4399C47.6374 89.6301 47.6034 89.8267 47.5846 90.024C47.5612 90.3599 47.5626 90.6971 47.5889 91.0328C47.5924 91.0968 47.5966 91.1693 47.5996 91.2393C47.6019 91.2648 47.599 91.2905 47.591 91.3149C47.5829 91.3392 47.57 91.3616 47.5529 91.3807C47.5346 91.3989 47.5127 91.4132 47.4887 91.4227C47.4646 91.4322 47.4389 91.4367 47.4131 91.4358H47.4133ZM55.8657 91.2936C55.7742 91.2949 55.6833 91.2777 55.5985 91.243C55.5137 91.2084 55.4367 91.157 55.3721 91.0919C55.3249 91.0419 55.2887 90.9825 55.2658 90.9175C55.243 90.8526 55.234 90.7836 55.2396 90.7149C55.3574 88.9197 55.4544 86.9911 55.3666 85.0532C55.2818 83.1833 55.1044 81.2805 54.8393 79.3973C54.6746 78.2269 54.4462 77.0479 54.2254 75.9077C54.1483 75.5099 54.0686 75.0985 53.9923 74.6906L53.9464 74.4431C53.7171 73.1987 53.4773 71.9344 53.2453 70.7122L53.2449 70.7099L53.195 70.4471L52.8176 68.4533C52.302 65.7326 51.6956 62.5737 51.0232 59.5136L50.985 59.3391C50.6036 57.6329 50.2009 56.2744 49.7175 55.0637C49.4437 54.3714 49.1226 53.6989 48.7564 53.051C48.3915 52.4065 47.9688 51.7966 47.4934 51.229C47.2531 50.9449 46.9976 50.6741 46.7279 50.4179C46.4689 50.1716 46.1884 49.9303 45.8943 49.7008C45.3159 49.2538 44.7044 48.8515 44.0651 48.4975C43.491 48.1753 42.8455 47.8537 42.0912 47.515C41.3994 47.2043 40.6864 46.91 40.0573 46.6503C40.0353 46.6421 40.0169 46.6263 40.0054 46.6056C39.994 46.585 39.9903 46.561 39.9949 46.5379C39.9981 46.5177 40.0084 46.4994 40.024 46.4863C40.0396 46.4732 40.0594 46.4662 40.0797 46.4666C40.0888 46.4667 40.0978 46.4678 40.1066 46.4699L40.3249 46.5221C41.8459 46.8872 43.459 47.3046 44.9876 48.0365C45.7273 48.3914 46.4208 48.8357 47.0526 49.3596C47.6835 49.8841 48.2532 50.4783 48.7511 51.1309C49.6452 52.2984 50.3633 53.6625 50.9464 55.3001C51.5006 56.857 51.8695 58.4885 52.1572 59.8792C52.4969 61.5205 52.8275 63.1921 53.1471 64.8087C53.4978 66.582 53.8604 68.4157 54.2362 70.2155L54.3696 70.8564C54.7688 72.7806 55.0627 74.2648 55.3228 75.6687C55.6477 77.4223 55.9099 79.0059 56.1244 80.5096L56.1577 80.7447C56.4312 82.7003 56.5852 84.3083 56.6424 85.805C56.6761 86.6879 56.6748 87.5434 56.6387 88.348C56.6022 89.193 56.5211 90.0355 56.3957 90.872C56.3876 90.9353 56.3667 90.9964 56.3344 91.0514C56.302 91.1065 56.2587 91.1543 56.2073 91.192C56.1069 91.261 55.9873 91.2966 55.8656 91.2936H55.8657ZM32.8027 88.4781C32.7258 88.4787 32.6507 88.4549 32.5882 88.4101C32.5257 88.3653 32.4789 88.3018 32.4545 88.2287C32.3386 87.8258 32.2833 87.4078 32.2902 86.9885C32.2883 86.5606 32.3253 86.1298 32.3611 85.7133V85.7122C32.3716 85.5898 32.3815 85.4744 32.3906 85.3584L32.446 84.6437C32.4951 84.0028 32.5511 83.2466 32.5944 82.4986C32.6518 81.5089 32.6998 80.5017 32.7431 79.5603C32.7571 79.2576 32.7725 78.9454 32.7903 78.6058L32.8161 78.1288C32.819 78.0764 32.8215 78.0225 32.8237 77.9704C32.8404 77.6131 32.8576 77.2435 33.0013 76.9228C33.0124 76.8996 33.0301 76.8802 33.0523 76.867C33.0744 76.8538 33.0999 76.8475 33.1256 76.8489C33.1527 76.8481 33.1796 76.8545 33.2035 76.8675C33.2274 76.8805 33.2475 76.8996 33.2616 76.9228C33.439 77.251 33.475 77.6699 33.5065 78.0395V78.0413C33.51 78.081 33.5135 78.1221 33.5171 78.1618L33.521 78.2042C33.578 78.8081 33.6135 79.2728 33.6358 79.7111C33.6844 80.6667 33.7076 81.63 33.7047 82.574C33.7013 83.6716 33.6765 84.6316 33.6292 85.509L33.615 85.771C33.5961 86.21 33.5518 86.6474 33.4823 87.0812C33.4167 87.5102 33.282 87.9256 33.0835 88.3112C33.0566 88.3623 33.0161 88.405 32.9665 88.4344C32.9169 88.4639 32.8602 88.479 32.8025 88.478L32.8027 88.4781ZM-0.227618 81.6722C-0.23175 81.6722 -0.235855 81.6715 -0.239789 81.6703C-0.289999 81.6581 -0.336994 81.6352 -0.377564 81.6031C-0.418135 81.5711 -0.451324 81.5306 -0.474867 81.4845C-0.527532 81.3686 -0.509696 81.2073 -0.421819 81.005C-0.208175 80.5134 0.143791 80.0635 0.484198 79.6284L0.490092 79.6208C0.523467 79.5781 0.556638 79.5358 0.589604 79.4937C0.948829 79.0326 1.33949 78.597 1.75879 78.1901L1.88173 78.071C1.92926 78.0244 1.97764 77.9753 2.02893 77.9233C2.20163 77.7387 2.38902 77.5686 2.58926 77.4144C2.8225 77.2457 3.03706 77.164 3.24504 77.164C3.26158 77.164 3.27826 77.1646 3.2948 77.1656C3.34532 77.1667 3.39496 77.1791 3.44 77.2021C3.48505 77.225 3.52434 77.2579 3.55495 77.2981C3.58555 77.3384 3.60668 77.3852 3.61674 77.4348C3.62681 77.4844 3.62556 77.5357 3.61308 77.5848C3.536 77.9512 3.22943 78.1789 2.93288 78.399C2.84822 78.4619 2.76838 78.5212 2.69313 78.5838C2.31491 78.8989 1.96371 79.2308 1.60731 79.5715C1.3015 79.8636 1.00334 80.1668 0.695776 80.4988L0.585471 80.6185C0.566793 80.639 0.527065 80.6779 0.47685 80.7272L0.476161 80.7279C0.237562 80.9617 -0.258697 81.4483 -0.191871 81.594L-0.187431 81.6017C-0.183151 81.6081 -0.18076 81.6157 -0.180531 81.6234C-0.1803 81.6312 -0.18224 81.6388 -0.18613 81.6456C-0.190099 81.6533 -0.196069 81.6599 -0.203418 81.6645C-0.210767 81.6692 -0.219228 81.6718 -0.227924 81.6721L-0.227618 81.6722ZM28.8561 72.1839C28.6737 72.182 28.4994 72.1079 28.3713 71.9777C28.2359 71.8406 28.1389 71.6704 28.0898 71.4839C28.0483 71.2948 28.0339 71.1008 28.0469 70.9077C28.0512 70.681 28.0556 70.4467 27.9722 70.2461C27.9253 70.1424 27.8693 70.0433 27.8047 69.9497C27.7418 69.8582 27.6866 69.7615 27.6399 69.6608C27.554 69.4566 27.5044 69.2389 27.4931 69.0176C27.4955 68.8317 27.5293 68.6475 27.5931 68.4729C27.6722 68.207 27.7538 67.932 27.631 67.7057C27.6194 67.6819 27.6139 67.6555 27.6151 67.6289C27.6162 67.6024 27.624 67.5766 27.6377 67.5539C27.6475 67.5357 27.6619 67.5204 27.6796 67.5097C27.6972 67.4991 27.7174 67.4934 27.7381 67.4932H27.7409L27.7522 67.494C27.9038 67.5119 28.0443 67.5825 28.1494 67.6934C28.2553 67.806 28.3302 67.9443 28.3664 68.0947C28.3999 68.2366 28.4249 68.3803 28.4413 68.5251C28.4788 68.8081 28.5142 69.075 28.6957 69.3432C28.984 69.769 29.1478 70.0951 29.1879 70.5968C29.193 70.6615 29.1955 70.7272 29.1987 70.7905V70.7914C29.2007 70.9359 29.2157 71.0798 29.2435 71.2216L29.2773 71.3655C29.3201 71.5169 29.3361 71.6747 29.3247 71.8316C29.3222 71.9026 29.2978 71.9711 29.2549 72.0276C29.2119 72.0841 29.1525 72.1259 29.0849 72.1472C29.011 72.1712 28.9338 72.1836 28.8561 72.1839ZM14.3093 64.6357C14.0146 64.6382 13.7201 64.6177 13.4285 64.5743C13.4111 64.5722 13.395 64.5638 13.3833 64.5507C13.3716 64.5376 13.365 64.5207 13.3647 64.5031C13.3628 64.4815 13.3679 64.4598 13.3795 64.4413C13.391 64.4229 13.4082 64.4087 13.4285 64.401C13.9949 64.229 14.6093 64.1588 15.2031 64.091C15.3389 64.0757 15.4792 64.0595 15.6164 64.0425C16.2518 63.9634 17.0868 63.8561 17.9161 63.7264C18.7434 63.5969 19.4911 63.4695 20.2019 63.3368C20.5431 63.2732 20.8892 63.2058 21.2304 63.1364C21.3031 63.1215 21.3759 63.103 21.4537 63.0833C21.6264 63.0318 21.8047 63.0014 21.9847 62.993C22.0808 62.9915 22.1763 63.0083 22.2662 63.0426C22.3098 63.059 22.3488 63.086 22.3796 63.121C22.4105 63.1561 22.4322 63.1982 22.443 63.2436C22.451 63.2821 22.4489 63.3219 22.4371 63.3593C22.4253 63.3968 22.4041 63.4305 22.3755 63.4574C22.1688 63.6652 21.8799 63.709 21.6008 63.7515C21.5472 63.7597 21.4915 63.7681 21.4377 63.7776L21.4083 63.7829C21.0208 63.8547 20.6233 63.9245 20.2271 63.9904C19.4723 64.1157 18.7214 64.2248 17.9955 64.3148C17.1367 64.4214 16.3829 64.5009 15.691 64.5582L15.393 64.5827C15.0471 64.6101 14.6764 64.6357 14.3093 64.6357ZM32.8608 61.0816C32.8134 61.0818 32.7668 61.0695 32.7256 61.0458C32.6845 61.0221 32.6504 60.988 32.6267 60.9468C32.3259 60.4461 32.1727 59.8684 32.0247 59.3095C31.9501 59.0281 31.873 58.7374 31.7781 58.4601C31.6542 58.0984 31.5198 57.7336 31.3899 57.3809V57.3803C31.2301 56.9463 31.0649 56.4981 30.9178 56.0512C30.7402 55.5262 30.6063 54.9873 30.5176 54.4401C30.4281 53.8951 30.4117 53.3406 30.4688 52.7912L30.4654 52.7854C30.4626 52.7811 30.46 52.7766 30.4577 52.772L30.3702 52.5802C30.1352 52.0686 29.9049 51.6111 29.4674 51.194C29.3573 51.0889 29.243 50.9851 29.1325 50.8847C28.7905 50.5739 28.4369 50.2526 28.1675 49.857C28.028 49.6538 27.9209 49.4301 27.85 49.1938C27.7843 48.9711 27.7467 48.741 27.738 48.5089C27.7166 48.0464 27.7878 47.5647 27.8567 47.0989C27.8996 46.8094 27.9438 46.5102 27.9659 46.2167L27.9765 46.0645C27.9959 45.7705 27.9941 45.4472 27.8347 45.2779C27.7002 45.1349 27.4375 45.068 27.2057 45.0089C27.1121 44.985 27.0239 44.9629 26.9517 44.9369C26.301 44.7105 25.6676 44.4367 25.0568 44.1177C24.4755 43.8168 23.9196 43.4688 23.3948 43.0773L23.1301 42.8778C22.7109 42.5608 22.2783 42.2155 21.9996 41.7873C21.9932 41.7767 21.9898 41.7646 21.9898 41.7522C21.9898 41.7398 21.9932 41.7276 21.9996 41.717C22.005 41.7057 22.0134 41.696 22.0239 41.6891C22.0343 41.6821 22.0465 41.678 22.059 41.6774C22.0664 41.6772 22.0737 41.6784 22.0806 41.6811C22.431 41.8363 22.7674 42.0215 23.086 42.2346L23.087 42.2353C23.1933 42.3019 23.3032 42.371 23.4118 42.4363C23.4189 42.4198 23.4268 42.4035 23.4355 42.3878C23.7021 41.9055 23.8956 41.3861 24.0096 40.8468C24.1219 40.307 24.1567 39.7539 24.1128 39.2043C24.1061 39.1491 24.1112 39.0932 24.1276 39.0401C24.144 38.987 24.1714 38.938 24.208 38.8962C24.2503 38.8534 24.301 38.8197 24.3569 38.7972C24.4128 38.7748 24.4726 38.7641 24.5328 38.7658C24.6496 38.7649 24.7634 38.8036 24.8555 38.8757C24.905 38.9155 24.9456 38.9654 24.9746 39.022C25.0036 39.0786 25.0204 39.1408 25.0239 39.2043C25.119 40.4717 24.8404 41.7392 24.2226 42.8492C24.2196 42.8545 24.2164 42.8595 24.2133 42.8645L24.2083 42.8722C24.655 43.1052 25.0268 43.2846 25.3785 43.4367C25.9244 43.6728 26.4324 43.8658 26.9315 44.0266C27.0664 44.0701 27.2071 44.1054 27.3559 44.1427C27.7264 44.2356 28.109 44.3316 28.3964 44.5609C28.5856 44.7135 28.7307 44.9139 28.8168 45.1415C28.9031 45.3741 28.9497 45.6196 28.9546 45.8677C28.9747 46.3793 28.8733 46.9324 28.7917 47.3769C28.7817 47.4316 28.7713 47.4881 28.7616 47.5426L28.7362 47.6858C28.6568 48.1442 28.5957 48.6294 28.7931 49.0798C28.9855 49.5188 29.3541 49.8501 29.7105 50.1706L29.7146 50.1742C29.7452 50.2016 29.7755 50.2288 29.8054 50.256L29.8819 50.325C30.2402 50.6521 30.6048 51.011 30.8461 51.4179C31.0447 51.0062 31.3092 50.6584 31.5892 50.2906L31.5902 50.2893C31.6261 50.2422 31.6631 50.1935 31.6999 50.1449C31.8866 49.8979 31.8136 49.783 31.6927 49.5925C31.6643 49.548 31.6323 49.4974 31.6008 49.4405C31.5219 49.3014 31.4638 49.1515 31.4284 48.9955C31.3943 48.8392 31.3891 48.678 31.4131 48.5199C31.4361 48.3726 31.482 48.2298 31.5492 48.0968C31.6162 47.9655 31.6987 47.8427 31.7949 47.7311C31.9925 47.5084 32.2187 47.3129 32.4676 47.1498C32.8007 46.9305 33.1446 46.7281 33.498 46.5434C33.7484 46.4072 34.0071 46.2664 34.2536 46.1148C35.4697 45.3741 36.6188 44.5282 37.6876 43.5868C37.6942 43.5809 37.7028 43.5776 37.7116 43.5777C37.7187 43.5777 37.7256 43.5795 37.7317 43.583C37.7378 43.5866 37.7428 43.5916 37.7464 43.5978C37.7491 43.6029 37.7503 43.6086 37.7499 43.6144C37.7494 43.6202 37.7474 43.6257 37.744 43.6304C36.9303 44.894 35.9105 46.0115 34.7272 46.9362C34.3109 47.2591 33.8672 47.5412 33.4381 47.814C33.3571 47.8655 33.2842 47.9119 33.2111 47.9586L33.0629 48.054C32.8247 48.2086 32.5919 48.3815 32.5041 48.597C32.4323 48.7724 32.5334 48.9173 32.6311 49.0573C32.6617 49.1012 32.6931 49.1463 32.7189 49.1918C32.7991 49.3302 32.8554 49.4811 32.8853 49.6382C32.9109 49.7805 32.911 49.9262 32.8857 50.0685C32.8226 50.3665 32.6864 50.6441 32.4895 50.8762L32.4706 50.8998C32.0602 51.4066 31.7573 51.8732 31.6126 52.5027C31.4698 53.1241 31.4701 53.8031 31.6137 54.5779C31.7429 55.2747 31.9698 55.9568 32.1955 56.5902L32.2136 56.6409C32.274 56.8097 32.3361 56.9803 32.3965 57.1457L32.3973 57.1477C32.5851 57.6631 32.779 58.1958 32.9424 58.7289L33.0018 58.9239C33.1984 59.576 33.3567 60.2156 33.1382 60.8795C33.1191 60.9382 33.082 60.9894 33.0322 61.0257C32.9823 61.062 32.9224 61.0815 32.8608 61.0816ZM35.3086 51.7865C35.2486 51.7865 35.1874 51.7842 35.1266 51.7797C34.7661 51.7583 34.4148 51.6573 34.0978 51.484C33.9673 51.4 33.8457 51.3028 33.735 51.194C33.5033 50.9835 33.2639 50.7658 32.999 50.7658C32.9485 50.7659 32.8984 50.774 32.8505 50.7897C32.8463 50.7911 32.8418 50.7918 32.8373 50.7918C32.8264 50.7911 32.816 50.7872 32.8073 50.7805C32.7987 50.7738 32.7923 50.7646 32.7888 50.7543C32.7854 50.7459 32.7848 50.7366 32.7871 50.7278C32.7894 50.719 32.7945 50.7112 32.8015 50.7055C32.9131 50.6111 33.0544 50.5595 33.2004 50.5598C33.4654 50.5598 33.737 50.7173 33.9997 50.8696C34.1547 50.9679 34.3195 51.0496 34.4915 51.1133C34.8679 51.2336 35.2723 51.2342 35.6492 51.1152C36.026 50.9961 36.3569 50.7632 36.5965 50.4483C37.1268 49.7653 37.6152 49.0508 38.0592 48.3086C38.2865 47.9398 38.4904 47.5571 38.6699 47.1627C38.7635 46.9376 38.8358 46.7043 38.886 46.4657C38.9268 46.2831 38.9776 46.103 39.0383 45.9261C39.0782 45.8159 39.154 45.7223 39.2536 45.6605C39.3477 45.6025 39.456 45.5717 39.5664 45.5717C39.6327 45.57 39.6987 45.5818 39.7603 45.6063C39.8219 45.6308 39.878 45.6676 39.9251 45.7144C39.9669 45.7612 39.9987 45.8163 40.0182 45.8761C40.0378 45.9358 40.0447 45.999 40.0387 46.0616C40.0149 46.4885 39.8451 46.8833 39.6809 47.265C39.6652 47.3014 39.6496 47.3378 39.634 47.3742L39.6147 47.4197C39.4305 47.8581 39.2095 48.2802 38.9541 48.6812C38.4546 49.4519 37.8899 50.178 37.2662 50.8517C37.0162 51.1321 36.7161 51.3632 36.3813 51.5329C36.0481 51.6995 35.6809 51.7863 35.3085 51.7865H35.3086ZM39.7599 45.2638C39.6385 45.2602 39.5233 45.2093 39.4389 45.1217C39.0856 44.7892 38.7595 44.4288 38.4637 44.0439C38.1638 43.6629 37.9285 43.235 37.7671 42.7774C37.7633 42.7655 37.7624 42.7529 37.7645 42.7405C37.7667 42.7282 37.7718 42.7166 37.7794 42.7067C37.7877 42.6949 37.7987 42.6853 37.8115 42.6785C37.8242 42.6718 37.8383 42.6681 37.8528 42.6677C37.8673 42.6677 37.8815 42.6719 37.8936 42.6799C38.1343 42.8454 38.3633 43.0274 38.5788 43.2246C38.6818 43.3145 38.7882 43.4074 38.8948 43.4948C39.2646 43.7978 39.6392 44.096 40.0084 44.3811C40.0999 44.4475 40.1676 44.5417 40.2016 44.6496C40.2281 44.7414 40.2254 44.8392 40.194 44.9294C40.1646 45.023 40.1072 45.1053 40.0295 45.1651C39.9519 45.2249 39.8578 45.2594 39.7599 45.2638ZM37.1793 43.7732C37.0707 43.7725 36.9657 43.7343 36.8819 43.6652C36.395 43.2714 36.0355 42.7417 35.849 42.1431C35.7551 41.8475 35.7026 41.5403 35.693 41.2302C35.683 40.9172 35.7176 40.6043 35.7958 40.3011C35.8157 40.2071 35.868 40.1232 35.9433 40.0639C36.0187 40.0046 36.1124 39.9737 36.2082 39.9765C36.2831 39.9764 36.3571 39.9928 36.425 40.0244C36.4929 40.0561 36.553 40.1024 36.6011 40.1599C36.6417 40.2108 36.6698 40.2705 36.6833 40.3342C36.6968 40.398 36.6952 40.464 36.6787 40.527L36.6746 40.5439C36.5589 40.9887 36.5769 41.4578 36.7264 41.8923C36.8771 42.3254 37.1447 42.7081 37.4995 42.9979L37.5261 43.0196C37.5943 43.0708 37.6446 43.1421 37.6699 43.2236C37.6892 43.2941 37.6862 43.3689 37.6612 43.4376C37.6229 43.5349 37.5567 43.6188 37.4709 43.6785C37.3852 43.7382 37.2837 43.7712 37.1793 43.7732Z" fill="#222222"/>
<path d="M42.8301 20.212C42.123 17.1816 40.5063 14.4412 38.1978 12.3596C30.9006 5.12934 17.5 9.05381 17.5607 19.9496C17.2932 21.224 17.1985 22.5287 17.2794 23.8285C17.3152 24.3822 17.5543 25.155 17.2335 25.6534C16.508 26.5856 16.087 27.2727 16.3339 28.5129C16.5399 29.5958 17.2754 30.363 18.2676 30.7708C18.8628 30.9419 19.4275 31.3148 19.6479 31.8832C20.9726 34.3139 21.9541 36.3357 24.0425 37.9923C24.5814 38.4187 30.1086 40.9766 31.9298 40.9766C37.2614 40.9766 43.9812 39.041 44.0927 33.0724C44.112 31.7614 43.8824 30.4352 43.7385 29.1346C43.3879 26.1666 43.5116 23.0911 42.8301 20.212Z" fill="white"/>
<path d="M33.3048 41.6156C32.6802 41.623 32.0581 41.5361 31.4593 41.3579C31.1639 41.2665 30.8787 41.1453 30.6078 40.9961C30.3298 40.8421 30.0701 40.6567 29.8339 40.4437C29.7228 40.3466 29.6479 40.2145 29.6217 40.0691C29.5993 39.9322 29.6147 39.7919 29.6661 39.6631C29.7254 39.5097 29.8239 39.3746 29.9516 39.2713C30.0727 39.1691 30.2251 39.1115 30.3834 39.1082C30.5201 39.1095 30.6526 39.1561 30.7602 39.2407C30.9587 39.39 31.1707 39.5202 31.3935 39.6298C31.608 39.7347 31.8313 39.8205 32.0608 39.8862C32.5178 40.0136 32.9905 40.0756 33.4648 40.0704C33.9444 40.0665 34.4227 40.021 34.8945 39.9343C35.3073 39.8623 35.754 39.7613 36.3004 39.6166L36.356 39.6017C37.1734 39.3906 37.9712 39.1092 38.7403 38.7606C39.124 38.5844 39.4965 38.3846 39.8555 38.1622C40.2138 37.94 40.5547 37.6908 40.8752 37.4166C41.56 36.8299 42.1064 36.0981 42.475 35.2741C42.8387 34.4471 43.0417 33.558 43.073 32.6547C43.1172 31.6394 43.0285 30.6423 42.917 29.5375L42.9054 29.4225C42.86 28.9755 42.8135 28.5222 42.768 28.0837C42.6932 27.3586 42.6158 26.6089 42.5434 25.8704C42.4156 24.5676 42.3399 23.5648 42.2978 22.6189L42.2748 22.0716C42.2689 21.9313 42.2624 21.7862 42.2568 21.6582C42.2144 20.7014 42.1706 19.712 42.212 18.7506C42.2124 18.742 42.2161 18.7339 42.2224 18.7279C42.2286 18.722 42.237 18.7188 42.2456 18.7189C42.2524 18.7188 42.2591 18.721 42.2645 18.7252C42.27 18.7294 42.2738 18.7353 42.2754 18.742C42.4087 19.2157 42.5051 19.704 42.5978 20.1766C42.6432 20.4072 42.6901 20.6457 42.7409 20.8804C42.9201 21.7077 43.0457 22.3479 43.1484 22.9563C43.3409 24.0979 43.5256 25.3522 43.7296 26.9037L43.7727 27.2336C43.8225 27.6171 43.8788 28.0115 43.9335 28.3925C44.2121 30.3428 44.4999 32.3593 44.1369 34.3078C43.9518 35.2779 43.5602 36.1965 42.9886 37.0011C42.4156 37.8039 41.715 38.5072 40.915 39.083C40.1451 39.6399 39.3127 40.1043 38.4348 40.4668C37.5577 40.831 36.65 41.1164 35.7225 41.3195C35.3078 41.4116 34.9069 41.4832 34.5308 41.5319C34.1243 41.5859 33.7148 41.6139 33.3048 41.6156ZM23.4083 38.0655C23.356 38.0654 23.3043 38.0547 23.2562 38.0341C23.0196 37.926 22.807 37.7716 22.6309 37.5799C22.4462 37.3829 22.273 37.1754 22.1121 36.9585L22.111 36.957C22.0464 36.8732 21.9853 36.7941 21.9236 36.7173L21.8991 36.6866C21.5067 36.2004 21.1503 35.6861 20.8327 35.1479L20.7272 34.9706C20.1612 34.0168 19.5773 32.9945 19.2022 31.9051C19.1785 31.9299 19.1525 31.9525 19.1247 31.9726C18.9419 32.0976 18.7244 32.1615 18.5032 32.1552C18.2869 32.1504 18.0726 32.1132 17.8673 32.0449C17.6685 31.9807 17.4742 31.9036 17.2856 31.8138C16.7781 31.5778 16.3273 31.235 15.9638 30.8088C15.7707 30.5823 15.6019 30.336 15.4603 30.0739C15.3214 29.8166 15.2118 29.5445 15.1334 29.2627C15.0555 28.9814 15.0113 28.6919 15.0018 28.4001C14.9925 28.1018 15.0201 27.8034 15.084 27.5119C15.2021 26.9928 15.4255 26.5035 15.7403 26.0746C16.0518 25.6395 16.4532 25.2768 16.9172 25.0113C16.4829 24.5102 16.3125 23.8273 16.2038 23.2254C16.0628 22.4033 16.0165 21.5677 16.0659 20.7351C16.1085 19.9072 16.2308 19.0854 16.4312 18.2811C16.6314 17.4772 16.8981 16.6914 17.2288 15.932C17.8153 14.5797 18.6251 13.3362 19.624 12.2536C20.1216 11.7145 20.6638 11.2185 21.2449 10.7712C21.8287 10.3221 22.4503 9.92484 23.1029 9.58383C25.7619 8.20066 28.7924 7.70514 31.7522 8.16954C32.4585 8.28133 33.1536 8.45539 33.8294 8.68969C34.5025 8.92341 35.1547 9.2134 35.7793 9.55659C36.4043 9.90026 37.0006 10.2941 37.5622 10.7342C38.1252 11.1756 38.6522 11.6612 39.1382 12.1865C39.6195 12.7038 40.0608 13.257 40.4585 13.8413C40.8568 14.4252 41.1958 15.0476 41.4705 15.6992C41.6051 16.0218 41.7229 16.3512 41.8234 16.686C41.9239 17.021 42.0027 17.3621 42.0593 17.7073C42.1242 18.0652 42.1659 18.427 42.184 18.7904C42.1845 18.9529 42.1717 19.1152 42.1457 19.2756C42.1189 19.4408 42.1061 19.6079 42.1074 19.7752C42.1077 19.7809 42.1069 19.7866 42.1049 19.7919C42.1029 19.7973 42.0999 19.8021 42.0959 19.8063C42.0912 19.8109 42.0856 19.8146 42.0794 19.8171C42.0732 19.8196 42.0666 19.8209 42.0599 19.8208C42.0498 19.8213 42.0399 19.8182 42.0318 19.8121C42.0238 19.8061 42.0181 19.7974 42.0158 19.7875C41.9555 19.5737 41.8688 19.3682 41.7579 19.1757C41.685 19.0427 41.6196 18.9056 41.5623 18.7651C41.4534 18.485 41.3284 18.2102 41.2198 17.9749L41.1164 17.7515C40.8265 17.1233 40.4767 16.5116 40.1386 15.9199L40.1035 15.8585C39.3877 14.6052 38.4749 13.4757 37.4002 12.5137C36.4566 11.6705 35.3861 10.9818 34.2283 10.473C33.6508 10.2195 33.0536 10.0136 32.4427 9.8574C31.831 9.70116 31.2069 9.59775 30.5775 9.54831C30.2569 9.52345 29.9309 9.51079 29.6087 9.51079C28.4606 9.51065 27.3178 9.66778 26.2121 9.97785C25.1049 10.2872 24.0466 10.7511 23.0683 11.3559C20.8327 12.7583 19.1388 14.8803 18.2644 17.3741C17.825 18.6232 17.5741 19.9311 17.5201 21.2544C17.497 21.9271 17.512 22.6006 17.5652 23.2716L17.5881 23.5909C17.6266 23.9696 17.6229 24.3513 17.5771 24.7291C17.8636 24.6372 18.1624 24.5893 18.4632 24.5869C18.585 24.5868 18.7067 24.5956 18.8272 24.6132C19.4643 24.7069 19.8376 24.9723 20.117 25.5294C20.1197 25.5344 20.1211 25.5401 20.1209 25.5458C20.1208 25.5515 20.1192 25.5571 20.1162 25.562C20.1133 25.5667 20.1092 25.5706 20.1044 25.5733C20.0996 25.5759 20.0942 25.5774 20.0887 25.5774C20.0832 25.5773 20.0778 25.576 20.0729 25.5735C19.9033 25.4982 19.7187 25.4627 19.5333 25.4698C18.8466 25.4853 18.1795 25.7016 17.6138 26.092C17.2931 26.3109 17.0152 26.5869 16.7938 26.9062C16.5706 27.2249 16.4219 27.5899 16.3586 27.9741C16.3297 28.1588 16.3255 28.3466 16.3461 28.5325C16.3667 28.7169 16.4091 28.8983 16.4724 29.0727C16.601 29.4236 16.8012 29.7437 17.0603 30.0126C17.1932 30.1519 17.3384 30.2787 17.4941 30.3916C17.6499 30.5049 17.8179 30.6001 17.9951 30.6755C18.1488 30.7363 18.3067 30.7859 18.4675 30.824C18.7367 30.8942 18.9906 30.9604 19.2302 31.1481C19.2825 31.1881 19.3243 31.2404 19.3517 31.3004C19.3791 31.3604 19.3914 31.4262 19.3875 31.4921C19.3792 31.6232 19.3308 31.7486 19.249 31.8513C19.6539 32.2963 20.042 32.77 20.4173 33.2283L20.4177 33.2288C20.7862 33.6786 21.1671 34.1436 21.5642 34.5817C21.901 34.9535 22.2914 35.3872 22.6608 35.8257L22.7938 35.985C22.8927 36.1047 23.0061 36.2244 23.1262 36.351C23.4381 36.6801 23.7605 37.0202 23.8778 37.4106C23.8972 37.4874 23.8986 37.5676 23.882 37.6451C23.8653 37.7225 23.8309 37.795 23.7816 37.8569C23.7396 37.9182 23.6841 37.9689 23.6193 38.005C23.5546 38.0412 23.4823 38.0619 23.4083 38.0655ZM20.0152 29.7401C19.9196 29.7412 19.8259 29.7133 19.7464 29.6601C19.6547 29.5941 19.586 29.5011 19.5497 29.3941L19.5415 29.3711C19.4567 29.1377 19.3279 28.9229 19.162 28.7384C19.1132 28.8174 19.0444 28.8819 18.9624 28.9253C18.9333 28.9393 18.9014 28.9465 18.8692 28.9463C18.8292 28.9492 18.7894 28.9377 18.7572 28.9137C18.725 28.8898 18.7024 28.8551 18.6936 28.8159C18.6672 28.6699 18.6966 28.5193 18.7758 28.3939L18.7867 28.378C18.5947 28.2234 18.3862 28.0908 18.1649 27.9826C17.9615 27.8816 17.7454 27.8087 17.5224 27.766C17.5132 27.7639 17.5051 27.7586 17.4995 27.7511C17.4939 27.7435 17.4912 27.7342 17.4918 27.7249C17.4911 27.7153 17.4938 27.7059 17.4994 27.6982C17.505 27.6905 17.5131 27.685 17.5224 27.6827C17.7578 27.6349 17.9972 27.6092 18.2373 27.606C18.5458 27.6028 18.8515 27.6651 19.1343 27.7887C19.4132 27.9126 19.6704 28.0806 19.8962 28.2862C20.1204 28.4923 20.3249 28.7189 20.5071 28.9632C20.5593 29.0242 20.5924 29.0992 20.6024 29.179C20.6123 29.2587 20.5987 29.3396 20.5631 29.4116C20.5089 29.5101 20.4297 29.5924 20.3334 29.6501C20.2371 29.7078 20.1273 29.7388 20.0152 29.7401Z" fill="#222222"/>
<path fill-rule="evenodd" clip-rule="evenodd" d="M39.0459 21.3097L38.9359 21.2872C38.8065 21.2612 38.6765 21.2722 38.5622 21.3188C38.4501 21.3645 38.3525 21.4441 38.2843 21.5589C38.1935 21.7118 38.1814 21.8401 38.2235 22.0096C38.256 22.1405 38.3273 22.239 38.4205 22.3102C38.5188 22.3852 38.6433 22.4289 38.7726 22.4441C39.3692 22.5143 39.9568 22.6459 40.528 22.8326C40.7956 22.9201 41.0482 23.0387 41.2985 23.1617L41.5143 23.2682C41.7134 23.3658 41.919 23.4598 42.1788 23.528C42.1992 23.5334 42.2193 23.5385 42.2394 23.5432C42.3114 23.5206 42.3237 23.4931 42.3389 23.4732L42.3451 23.4654C42.3636 23.4421 42.3865 23.4064 42.3649 23.2397C41.798 22.0614 40.2429 21.5605 39.0459 21.3097ZM31.6175 21.644L31.7613 21.6188C32.2058 21.5417 32.7586 21.4677 33.0731 21.8259C33.2399 22.0158 33.2973 22.3689 33.0731 22.5507C32.7795 22.7889 32.4628 22.781 32.1251 22.7726C32.0092 22.7698 31.8909 22.7668 31.7701 22.7737C31.3806 22.7961 31.0063 22.8607 30.6312 22.9682C29.8081 23.204 29.1375 23.6344 28.4345 24.1069C28.3423 24.1689 28.2482 24.0507 28.2922 23.9642C28.6979 23.1677 29.4843 22.5134 30.272 22.1145C30.6924 21.9016 31.1524 21.725 31.6175 21.644ZM30.5746 25.1205C30.6385 24.326 31.8458 24.1456 31.9659 24.9318C32.0735 25.6361 31.9469 26.283 31.6304 26.9171C31.3279 27.5228 30.5678 27.2402 30.5103 26.6886C30.4535 26.1438 30.4938 25.8188 30.5348 25.4877C30.5494 25.3695 30.5642 25.2506 30.5746 25.1205ZM40.4678 24.4822C40.1766 24.397 39.9335 24.5478 39.7652 24.7688C39.7458 24.7942 39.7299 24.8195 39.7157 24.8445C39.1902 25.3284 39.3881 26.3096 39.8015 26.8009C40.0551 27.1021 40.6163 27.0154 40.7899 26.6732C41.1094 26.0431 41.3775 24.7487 40.4678 24.4822ZM38.1364 30.4058C38.7582 29.5328 37.8775 28.7117 37.2994 28.3596C37.148 28.2506 37.2682 27.8898 37.5918 27.9455C40.531 28.4517 39.0081 33.5258 35.2554 30.7414C34.8086 30.3801 35.3497 29.5845 35.8312 29.8939C35.8556 29.9126 35.8812 29.9324 35.9079 29.9532C36.4489 30.3723 37.4389 31.1394 38.1364 30.4058ZM35.4448 35.7673C34.9303 35.557 34.4711 35.2061 34.1355 34.7577C34.0188 34.6019 33.9885 34.4373 34.013 34.2868C34.0405 34.1175 34.1404 33.9642 34.2767 33.8612C34.4134 33.758 34.5843 33.7072 34.7496 33.7331C34.8932 33.7556 35.0362 33.8344 35.1494 33.9979L35.173 34.0306C35.3726 34.3012 35.6326 34.5231 35.9289 34.6663C36.2145 34.8042 36.5339 34.8686 36.8644 34.8312C37.494 34.7599 37.9278 34.4186 38.389 33.9553C38.4462 33.8968 38.5034 33.8364 38.5609 33.7751C38.5972 33.7196 38.6475 33.6838 38.7035 33.6651C38.7656 33.6443 38.8359 33.6455 38.9002 33.668C38.9622 33.6897 39.0177 33.7309 39.0549 33.7856C39.0902 33.8376 39.1103 33.9019 39.1038 33.9758C39.0616 34.456 38.8111 34.8845 38.4553 35.221C38.0601 35.5948 37.5363 35.8533 37.0431 35.944C36.4998 36.0439 35.9462 35.9723 35.4448 35.7673Z" fill="#222222"/>
<path fill-rule="evenodd" clip-rule="evenodd" d="M42.0127 34.0915C42.2067 34.425 42.3704 34.7789 42.5003 35.1444C42.5614 35.3161 43.0196 37.1741 42.7298 38.2387C42.4508 39.2636 41.9462 40.2355 41.3079 41.0887C40.7215 41.8721 39.9823 42.5233 39.0665 42.8835C37.8716 43.3536 36.4466 43.2214 35.1998 43.1C33.6426 42.948 32.1121 42.6008 30.6314 42.0986C29.8906 41.8482 29.1637 41.5595 28.4473 41.2469C27.7433 40.9405 26.9949 40.6386 26.3351 40.2416C25.7679 39.8999 25.284 39.3622 24.8207 38.8962C24.0907 38.1619 23.3767 37.3962 22.746 36.573C22.1574 35.805 21.717 35.0937 21.568 34.1222C21.3374 32.6159 21.5518 31.0333 21.7565 29.5223C21.773 29.4001 21.7895 29.2783 21.8057 29.1572C21.8118 29.1065 21.8913 29.0796 21.9081 29.1318C21.9066 29.1034 21.9051 29.0751 21.9036 29.0466C21.8982 28.9252 22.0748 28.9092 22.1077 29.0189C22.5098 30.3522 23.1664 31.5656 24.1106 32.5909C25.4106 34.002 27.072 34.9814 28.6853 35.9994C28.7394 35.9482 28.8052 35.9119 28.8748 35.8981C29.1081 34.8465 29.8793 33.8689 30.6421 33.2037C32.8751 31.2577 36.4528 30.4213 39.2178 31.6078C40.3867 32.1101 41.3713 32.9887 42.0127 34.0915ZM34.0095 33.3327C32.4522 33.7237 31.0996 34.7932 30.4798 36.2483C30.433 36.5658 30.4368 36.8872 30.5039 37.2058C31.8257 38.1367 33.449 38.626 35.0735 38.4363C35.5795 37.807 36.1398 36.7339 36.9907 36.6101C37.6207 36.5185 38.0665 36.9344 38.5144 37.3523C38.7445 37.567 38.9752 37.7821 39.2316 37.9292C39.2737 37.9534 39.3196 37.9769 39.3672 37.9997C39.852 37.9594 40.3384 37.8459 40.746 37.5684C41.1637 37.2843 41.3218 36.8996 41.3962 36.4476C41.3749 36.3614 41.352 36.2756 41.3277 36.1904C41.1565 35.5914 40.9127 35.007 40.5541 34.4963C40.2529 34.0654 39.8523 33.6983 39.3608 33.5041C38.7852 33.2767 38.13 33.2283 37.5192 33.1692C36.3534 33.0555 35.1532 33.0463 34.0095 33.3327Z" fill="#222222"/>
</g>
<rect x="0.75" y="0.75" width="58.5" height="58.5" rx="29.25" stroke="#222222" stroke-width="1.5"/>
</g>
<path d="M71.2019 22.059C71.2019 21.8324 71.1735 21.6779 71.1169 21.5955C71.0602 21.4925 70.9657 21.441 70.8335 21.441C70.6824 21.441 70.5785 21.4925 70.5218 21.5955C70.4652 21.6779 70.4368 21.8324 70.4368 22.059V37.941C70.4368 38.1676 70.4652 38.3324 70.5218 38.4354C70.5785 38.5178 70.6824 38.559 70.8335 38.559C70.9657 38.559 71.0602 38.5178 71.1169 38.4354C71.1735 38.3324 71.2019 38.1676 71.2019 37.941V31.6685H73.667V37.9101C73.667 38.8989 73.4026 39.661 72.8736 40.1966C72.3447 40.7322 71.6647 41 70.8335 41C70.0023 41 69.3223 40.7322 68.7934 40.1966C68.2645 39.661 68 38.8989 68 37.9101V22.0899C68 21.1217 68.2645 20.3698 68.7934 19.8343C69.3223 19.2781 70.0118 19 70.8618 19C71.693 19 72.3636 19.2678 72.8736 19.8034C73.4026 20.339 73.667 21.1011 73.667 22.0899V27.3736H71.2019V22.059Z" fill="#222222"/>
<path d="M80.4314 19.1854L78.5329 33.7079V40.8146H76.0678V33.7079L74.1693 19.1854H76.6911L77.1445 26.632L77.2578 29.7219H77.3145L77.4278 26.632L77.9095 19.1854H80.4314Z" fill="#222222"/>
<path d="M86.7134 22.059V26.4775C86.7134 27.2809 86.6472 27.8886 86.515 28.3006C86.3828 28.7125 86.0805 29.0112 85.6083 29.1966V29.2584C86.0805 29.4438 86.3828 29.7425 86.515 30.1545C86.6472 30.5665 86.7134 31.1742 86.7134 31.9775V37.941C86.7134 38.9504 86.4772 39.6816 86.005 40.1348C85.5327 40.588 84.8243 40.8146 83.8798 40.8146H81.0463V19.1854H83.9082C84.8527 19.1854 85.5516 19.412 86.005 19.8652C86.4772 20.3184 86.7134 21.0496 86.7134 22.059ZM84.2482 22.2135C84.2482 21.9869 84.2199 21.8324 84.1632 21.75C84.1065 21.6676 84.0026 21.6264 83.8515 21.6264H83.4832V28.0225H83.8798C84.0121 28.0225 84.1065 27.9813 84.1632 27.8989C84.2199 27.7959 84.2482 27.6311 84.2482 27.4045V22.2135ZM84.2482 31.0506C84.2482 30.824 84.2199 30.6695 84.1632 30.5871C84.1065 30.4841 84.0026 30.4326 83.8515 30.4326H83.4832V38.3736H83.8798C84.0121 38.3736 84.1065 38.3324 84.1632 38.25C84.2199 38.1676 84.2482 38.0131 84.2482 37.7865V31.0506Z" fill="#222222"/>
<path d="M91.1536 19.1854V21.6264H90.0202V28.5169H91.0119V30.927H90.0202V38.3736H91.2952V40.8146H87.5833V19.1854H91.1536Z" fill="#222222"/>
<path d="M95.3022 31.6685C95.3022 31.4419 95.2739 31.2875 95.2172 31.2051C95.1605 31.1021 95.0661 31.0506 94.9339 31.0506H94.5372V40.8146H92.1004V19.1854H94.9622C95.9067 19.1854 96.6056 19.412 97.059 19.8652C97.5313 20.3184 97.7674 21.0496 97.7674 22.059V27.0955C97.7674 27.8989 97.7013 28.5066 97.569 28.9185C97.4368 29.3305 97.1346 29.6292 96.6623 29.8146V29.8764C97.1346 30.0618 97.4368 30.3605 97.569 30.7725C97.7013 31.1845 97.7674 31.7921 97.7674 32.5955V38.0028C97.7674 38.3118 97.7674 38.5899 97.7674 38.8371C97.7674 39.0637 97.7768 39.28 97.7957 39.486C97.8146 39.6919 97.8429 39.8979 97.8807 40.1039C97.9374 40.2893 98.0035 40.5056 98.0791 40.7528V40.8146H95.5572C95.4628 40.382 95.3967 39.97 95.3589 39.5787C95.3211 39.1873 95.3022 38.6723 95.3022 38.0337V31.6685ZM95.3022 22.2135C95.3022 22.0075 95.2739 21.8633 95.2172 21.7809C95.1605 21.6779 95.0661 21.6264 94.9339 21.6264H94.5372V28.6405H94.9339C95.0661 28.6405 95.1605 28.5993 95.2172 28.5169C95.2739 28.4139 95.3022 28.2491 95.3022 28.0225V22.2135Z" fill="#222222"/>
<path d="M107.049 34.1713V37.9101C107.049 38.8989 106.785 39.661 106.256 40.1966C105.727 40.7322 105.037 41 104.187 41C103.356 41 102.676 40.7322 102.147 40.1966C101.637 39.661 101.382 38.8989 101.382 37.9101V33.2135H103.819V37.941C103.819 38.1676 103.847 38.3324 103.904 38.4354C103.979 38.5178 104.083 38.559 104.216 38.559C104.329 38.559 104.414 38.5178 104.471 38.4354C104.546 38.3324 104.584 38.1676 104.584 37.941V34.1713C104.584 33.4504 104.433 32.7603 104.131 32.1011C103.828 31.4419 103.488 30.7725 103.111 30.0927C102.695 29.3305 102.298 28.5375 101.92 27.7135C101.562 26.8689 101.382 25.9213 101.382 24.8708V22.0899C101.382 21.1217 101.647 20.3698 102.175 19.8343C102.704 19.2781 103.394 19 104.244 19C105.075 19 105.746 19.2678 106.256 19.8034C106.785 20.339 107.049 21.1011 107.049 22.0899V25.8287H104.584V22.059C104.584 21.8324 104.546 21.6779 104.471 21.5955C104.414 21.4925 104.329 21.441 104.216 21.441C104.083 21.441 103.979 21.4925 103.904 21.5955C103.847 21.6779 103.819 21.8324 103.819 22.059V24.8708C103.819 25.6124 103.97 26.3127 104.272 26.9719C104.575 27.6105 104.915 28.2697 105.292 28.9494C105.727 29.7116 106.124 30.515 106.482 31.3596C106.86 32.2041 107.049 33.1414 107.049 34.1713Z" fill="#222222"/>
<path d="M111.491 19.1854V21.6264H110.357V28.5169H111.349V30.927H110.357V38.3736H111.632V40.8146H107.92V19.1854H111.491Z" fill="#222222"/>
<path d="M115.639 22.059C115.639 21.8324 115.611 21.6779 115.554 21.5955C115.498 21.4925 115.403 21.441 115.271 21.441C115.12 21.441 115.016 21.4925 114.959 21.5955C114.903 21.6779 114.874 21.8324 114.874 22.059V37.941C114.874 38.1676 114.903 38.3324 114.959 38.4354C115.016 38.5178 115.12 38.559 115.271 38.559C115.403 38.559 115.498 38.5178 115.554 38.4354C115.611 38.3324 115.639 38.1676 115.639 37.941V31.6685H118.104V37.9101C118.104 38.8989 117.84 39.661 117.311 40.1966C116.782 40.7322 116.102 41 115.271 41C114.44 41 113.76 40.7322 113.231 40.1966C112.702 39.661 112.437 38.8989 112.437 37.9101V22.0899C112.437 21.1217 112.702 20.3698 113.231 19.8343C113.76 19.2781 114.449 19 115.299 19C116.13 19 116.801 19.2678 117.311 19.8034C117.84 20.339 118.104 21.1011 118.104 22.0899V27.3736H115.639V22.059Z" fill="#222222"/>
<path d="M124.697 19.1854V37.9101C124.697 38.8989 124.432 39.661 123.903 40.1966C123.375 40.7322 122.694 41 121.863 41C121.032 41 120.352 40.7322 119.823 40.1966C119.294 39.661 119.03 38.8989 119.03 37.9101V19.1854H121.467V37.941C121.467 38.1676 121.495 38.3324 121.552 38.4354C121.608 38.5178 121.712 38.559 121.863 38.559C121.996 38.559 122.09 38.5178 122.147 38.4354C122.203 38.3324 122.232 38.1676 122.232 37.941V19.1854H124.697Z" fill="#222222"/>
<path d="M128.824 31.6685C128.824 31.4419 128.796 31.2875 128.739 31.2051C128.682 31.1021 128.588 31.0506 128.456 31.0506H128.059V40.8146H125.622V19.1854H128.484C129.428 19.1854 130.127 19.412 130.581 19.8652C131.053 20.3184 131.289 21.0496 131.289 22.059V27.0955C131.289 27.8989 131.223 28.5066 131.091 28.9185C130.959 29.3305 130.656 29.6292 130.184 29.8146V29.8764C130.656 30.0618 130.959 30.3605 131.091 30.7725C131.223 31.1845 131.289 31.7921 131.289 32.5955V38.0028C131.289 38.3118 131.289 38.5899 131.289 38.8371C131.289 39.0637 131.299 39.28 131.317 39.486C131.336 39.6919 131.365 39.8979 131.403 40.1039C131.459 40.2893 131.525 40.5056 131.601 40.7528V40.8146H129.079C128.985 40.382 128.918 39.97 128.881 39.5787C128.843 39.1873 128.824 38.6723 128.824 38.0337V31.6685ZM128.824 22.2135C128.824 22.0075 128.796 21.8633 128.739 21.7809C128.682 21.6779 128.588 21.6264 128.456 21.6264H128.059V28.6405H128.456C128.588 28.6405 128.682 28.5993 128.739 28.5169C128.796 28.4139 128.824 28.2491 128.824 28.0225V22.2135Z" fill="#222222"/>
<path d="M134.651 19.1854V40.8146H132.214V19.1854H134.651Z" fill="#222222"/>
<path d="M140.725 19.1854V21.6264H139.308V40.8146H136.871V21.6264H135.455V19.1854H140.725Z" fill="#222222"/>
<path d="M147.447 19.1854L145.549 33.7079V40.8146H143.084V33.7079L141.185 19.1854H143.707L144.16 26.632L144.274 29.7219H144.33L144.444 26.632L144.925 19.1854H147.447Z" fill="#222222"/>
<path d="M152.083 35.4691V33.059H155.54V35.4691H152.083ZM155.342 19.1854L156.872 40.8146H154.18L153.67 26.632L153.557 22.368H153.5L153.415 26.632L152.877 40.8146H150.468L151.942 19.1854H155.342Z" fill="#222222"/>
<path d="M160.686 22.059C160.686 21.8324 160.657 21.6779 160.601 21.5955C160.544 21.4925 160.449 21.441 160.317 21.441C160.166 21.441 160.062 21.4925 160.005 21.5955C159.949 21.6779 159.92 21.8324 159.92 22.059V37.941C159.92 38.1676 159.949 38.3324 160.005 38.4354C160.062 38.5178 160.166 38.559 160.317 38.559C160.449 38.559 160.544 38.5178 160.601 38.4354C160.657 38.3324 160.686 38.1676 160.686 37.941V31.6685H163.151V37.9101C163.151 38.8989 162.886 39.661 162.357 40.1966C161.828 40.7322 161.148 41 160.317 41C159.486 41 158.806 40.7322 158.277 40.1966C157.748 39.661 157.484 38.8989 157.484 37.9101V22.0899C157.484 21.1217 157.748 20.3698 158.277 19.8343C158.806 19.2781 159.495 19 160.345 19C161.177 19 161.847 19.2678 162.357 19.8034C162.886 20.339 163.151 21.1011 163.151 22.0899V27.3736H160.686V22.059Z" fill="#222222"/>
<path d="M165.351 35.4691V33.059H168.808V35.4691H165.351ZM168.61 19.1854L170.14 40.8146H167.448L166.938 26.632L166.825 22.368H166.768L166.683 26.632L166.144 40.8146H163.736L165.209 19.1854H168.61Z" fill="#222222"/>
<path d="M176.418 22.059V37.941C176.418 38.9092 176.192 39.6302 175.738 40.1039C175.285 40.5777 174.567 40.8146 173.585 40.8146H170.751V19.1854H173.613C174.577 19.1854 175.285 19.4223 175.738 19.8961C176.192 20.3698 176.418 21.0908 176.418 22.059ZM173.953 22.2135C173.953 21.9869 173.925 21.8324 173.868 21.75C173.812 21.6676 173.717 21.6264 173.585 21.6264H173.188V38.3736H173.585C173.717 38.3736 173.812 38.3324 173.868 38.25C173.925 38.1676 173.953 38.0131 173.953 37.7865V22.2135Z" fill="#222222"/>
<path d="M180.914 19.1854V21.6264H179.781V28.5169H180.772V30.927H179.781V38.3736H181.056V40.8146H177.344V19.1854H180.914Z" fill="#222222"/>
<path d="M191.126 19.1854V40.8146H188.803L188.916 26.9101V22.8933H188.859L188.633 26.9101L187.669 40.8146H185.318L184.354 26.9101L184.128 22.8933H184.071V26.9101L184.184 40.8146H181.861V19.1854H185.856L186.338 31.6067L186.479 35.4691H186.536L186.649 31.6067L187.131 19.1854H191.126Z" fill="#222222"/>
<path d="M198 19.1854L196.102 33.7079V40.8146H193.636V33.7079L191.738 19.1854H194.26L194.713 26.632L194.826 29.7219H194.883L194.996 26.632L195.478 19.1854H198Z" fill="#222222"/>
<defs>
<filter id="filter0_d_8625_1556" x="0" y="0" width="61" height="61" filterUnits="userSpaceOnUse" color-interpolation-filters="sRGB">
<feFlood flood-opacity="0" result="BackgroundImageFix"/>
<feColorMatrix in="SourceAlpha" type="matrix" values="0 0 0 0 0 0 0 0 0 0 0 0 0 0 0 0 0 0 127 0" result="hardAlpha"/>
<feOffset dx="1" dy="1"/>
<feComposite in2="hardAlpha" operator="out"/>
<feColorMatrix type="matrix" values="0 0 0 0 0.2 0 0 0 0 0.2 0 0 0 0 0.2 0 0 0 1 0"/>
<feBlend mode="normal" in2="BackgroundImageFix" result="effect1_dropShadow_8625_1556"/>
<feBlend mode="normal" in="SourceGraphic" in2="effect1_dropShadow_8625_1556" result="shape"/>
</filter>
<clipPath id="clip0_8625_1556">
<rect width="60" height="60" rx="30" fill="white"/>
</clipPath>
</defs>
</svg>
