<svg width="25" height="20" viewBox="0 0 25 20" fill="none" xmlns="http://www.w3.org/2000/svg">
<path d="M22.4804 4.99195C22.4804 5.21739 22.4804 5.44283 22.4804 5.63607C22.4804 12.3027 17.3102 20 7.88613 20C4.97382 20 2.29058 19.1626 0 17.7456C0.39267 17.7778 0.818063 17.81 1.21073 17.81C3.59948 17.81 5.82461 17.0048 7.59162 15.6522C5.33377 15.62 3.43586 14.1385 2.81414 12.1417C3.14136 12.2061 3.43586 12.2383 3.79581 12.2383C4.25393 12.2383 4.71204 12.1739 5.13743 12.0451C2.78141 11.5942 1.0144 9.56522 1.0144 7.11755C1.0144 7.08535 1.0144 7.08535 1.0144 7.05314C1.70157 7.43961 2.48691 7.66506 3.3377 7.69726C1.96335 6.79549 1.04712 5.2496 1.04712 3.47826C1.04712 2.54428 1.3089 1.67472 1.73429 0.933977C4.25393 3.99356 8.04974 5.99034 12.3037 6.21578C12.2055 5.86151 12.1728 5.44283 12.1728 5.05636C12.1728 2.25443 14.4634 0 17.3102 0C18.7827 0 20.1243 0.611916 21.0406 1.5781C22.2186 1.35266 23.2984 0.933977 24.3128 0.354267C23.9202 1.54589 23.1021 2.51208 22.055 3.1562C23.1021 3.02738 24.0838 2.76973 25 2.35105C24.3456 3.38164 23.4948 4.28341 22.4804 4.99195Z" fill="#808080"/>
</svg>
